<?xml version="1.0" encoding="utf-8"?>
<!-- Generator: Adobe Illustrator 16.0.0, SVG Export Plug-In . SVG Version: 6.00 Build 0)  -->
<!DOCTYPE svg PUBLIC "-//W3C//DTD SVG 1.1//EN" "http://www.w3.org/Graphics/SVG/1.1/DTD/svg11.dtd">
<svg version="1.1" id="Layer_1" xmlns="http://www.w3.org/2000/svg" xmlns:xlink="http://www.w3.org/1999/xlink" x="0px" y="0px"
	 width="800px" height="800px" viewBox="0 0 800 800" enable-background="new 0 0 800 800" xml:space="preserve">
<radialGradient id="SVGID_1_" cx="400" cy="400" r="400" gradientUnits="userSpaceOnUse">
	<stop  offset="0.0305" style="stop-color:#FBC0E0"/>
	<stop  offset="0.2944" style="stop-color:#F9A1D0"/>
	<stop  offset="0.5482" style="stop-color:#F562B1"/>
	<stop  offset="0.7868" style="stop-color:#BE4B89"/>
	<stop  offset="1" style="stop-color:#7B3158"/>
</radialGradient>
<rect fill="url(#SVGID_1_)" width="800" height="800"/>
<g>
	
		<radialGradient id="SVGID_2_" cx="1864.0107" cy="674.2314" r="447.9872" gradientTransform="matrix(-1.3089 0 0 -1.216 2838.4951 1137.5674)" gradientUnits="userSpaceOnUse">
		<stop  offset="0.1624" style="stop-color:#E5D6DE"/>
		<stop  offset="0.5787" style="stop-color:#CAADBC"/>
		<stop  offset="0.8274" style="stop-color:#B0839B"/>
		<stop  offset="1" style="stop-color:#846274"/>
	</radialGradient>
	<polygon fill="url(#SVGID_2_)" points="230.442,0.308 401.068,321.195 302.719,0.308 	"/>
	
		<radialGradient id="SVGID_3_" cx="1864.0107" cy="674.2314" r="447.935" gradientTransform="matrix(-1.3089 0 0 -1.216 2838.4951 1137.5674)" gradientUnits="userSpaceOnUse">
		<stop  offset="0.1624" style="stop-color:#E5D6DE"/>
		<stop  offset="0.5787" style="stop-color:#CAADBC"/>
		<stop  offset="0.8274" style="stop-color:#B0839B"/>
		<stop  offset="1" style="stop-color:#846274"/>
	</radialGradient>
	<polygon fill="url(#SVGID_3_)" points="486.243,804.572 401.068,321.195 400.8,804.572 	"/>
	
		<radialGradient id="SVGID_4_" cx="1864.0098" cy="674.2314" r="448.004" gradientTransform="matrix(-1.3089 0 0 -1.216 2838.4951 1137.5674)" gradientUnits="userSpaceOnUse">
		<stop  offset="0.1624" style="stop-color:#E5D6DE"/>
		<stop  offset="0.5787" style="stop-color:#CAADBC"/>
		<stop  offset="0.8274" style="stop-color:#B0839B"/>
		<stop  offset="1" style="stop-color:#846274"/>
	</radialGradient>
	<polygon fill="url(#SVGID_4_)" points="332.712,804.572 401.068,321.195 241.391,804.572 	"/>
	
		<radialGradient id="SVGID_5_" cx="1864.0107" cy="674.2314" r="447.9981" gradientTransform="matrix(-1.3089 0 0 -1.216 2838.4951 1137.5674)" gradientUnits="userSpaceOnUse">
		<stop  offset="0.1624" style="stop-color:#E5D6DE"/>
		<stop  offset="0.5787" style="stop-color:#CAADBC"/>
		<stop  offset="0.8274" style="stop-color:#B0839B"/>
		<stop  offset="1" style="stop-color:#846274"/>
	</radialGradient>
	<polygon fill="url(#SVGID_5_)" points="401.068,321.195 25.111,804.572 169.296,804.572 	"/>
	
		<radialGradient id="SVGID_6_" cx="1864.0117" cy="674.2314" r="448.0688" gradientTransform="matrix(-1.3089 0 0 -1.216 2838.4951 1137.5674)" gradientUnits="userSpaceOnUse">
		<stop  offset="0.1624" style="stop-color:#E5D6DE"/>
		<stop  offset="0.5787" style="stop-color:#CAADBC"/>
		<stop  offset="0.8274" style="stop-color:#B0839B"/>
		<stop  offset="1" style="stop-color:#846274"/>
	</radialGradient>
	<polygon fill="url(#SVGID_6_)" points="656.335,804.572 401.068,321.195 548.994,804.572 	"/>
	
		<radialGradient id="SVGID_7_" cx="1864.0107" cy="674.2314" r="448" gradientTransform="matrix(-1.3089 0 0 -1.216 2838.4951 1137.5674)" gradientUnits="userSpaceOnUse">
		<stop  offset="0.1624" style="stop-color:#E5D6DE"/>
		<stop  offset="0.5787" style="stop-color:#CAADBC"/>
		<stop  offset="0.8274" style="stop-color:#B0839B"/>
		<stop  offset="1" style="stop-color:#846274"/>
	</radialGradient>
	<polygon fill="url(#SVGID_7_)" points="800.524,804.572 800.524,652.814 401.068,321.195 754.065,804.572 	"/>
	
		<radialGradient id="SVGID_8_" cx="1864.0127" cy="674.2305" r="448.0009" gradientTransform="matrix(-1.3089 0 0 -1.216 2838.4951 1137.5674)" gradientUnits="userSpaceOnUse">
		<stop  offset="0.1624" style="stop-color:#E5D6DE"/>
		<stop  offset="0.5787" style="stop-color:#CAADBC"/>
		<stop  offset="0.8274" style="stop-color:#B0839B"/>
		<stop  offset="1" style="stop-color:#846274"/>
	</radialGradient>
	<polygon fill="url(#SVGID_8_)" points="-0.523,692.16 401.068,321.195 -0.523,529.164 	"/>
	
		<radialGradient id="SVGID_9_" cx="1864.0107" cy="674.2314" r="448" gradientTransform="matrix(-1.3089 0 0 -1.216 2838.4951 1137.5674)" gradientUnits="userSpaceOnUse">
		<stop  offset="0.1624" style="stop-color:#E5D6DE"/>
		<stop  offset="0.5787" style="stop-color:#CAADBC"/>
		<stop  offset="0.8274" style="stop-color:#B0839B"/>
		<stop  offset="1" style="stop-color:#846274"/>
	</radialGradient>
	<polygon fill="url(#SVGID_9_)" points="800.524,409.252 401.068,321.195 800.524,547.897 	"/>
	
		<radialGradient id="SVGID_10_" cx="1864.0107" cy="674.2295" r="447.9912" gradientTransform="matrix(-1.3089 0 0 -1.216 2838.4951 1137.5674)" gradientUnits="userSpaceOnUse">
		<stop  offset="0.1624" style="stop-color:#E5D6DE"/>
		<stop  offset="0.5787" style="stop-color:#CAADBC"/>
		<stop  offset="0.8274" style="stop-color:#B0839B"/>
		<stop  offset="1" style="stop-color:#846274"/>
	</radialGradient>
	<polygon fill="url(#SVGID_10_)" points="800.524,198.869 401.068,321.195 800.524,329.546 	"/>
	
		<radialGradient id="SVGID_11_" cx="1864.0107" cy="674.2314" r="447.9839" gradientTransform="matrix(-1.3089 0 0 -1.216 2838.4951 1137.5674)" gradientUnits="userSpaceOnUse">
		<stop  offset="0.1624" style="stop-color:#E5D6DE"/>
		<stop  offset="0.5787" style="stop-color:#CAADBC"/>
		<stop  offset="0.8274" style="stop-color:#B0839B"/>
		<stop  offset="1" style="stop-color:#846274"/>
	</radialGradient>
	<polygon fill="url(#SVGID_11_)" points="800.524,0.308 741.386,0.308 401.068,321.195 800.524,106.136 	"/>
	
		<radialGradient id="SVGID_12_" cx="1864.0098" cy="674.2314" r="447.9839" gradientTransform="matrix(-1.3089 0 0 -1.216 2838.4951 1137.5674)" gradientUnits="userSpaceOnUse">
		<stop  offset="0.1624" style="stop-color:#E5D6DE"/>
		<stop  offset="0.5787" style="stop-color:#CAADBC"/>
		<stop  offset="0.8274" style="stop-color:#B0839B"/>
		<stop  offset="1" style="stop-color:#846274"/>
	</radialGradient>
	<polygon fill="url(#SVGID_12_)" points="555.275,0.308 401.068,321.195 647.114,0.308 	"/>
	
		<radialGradient id="SVGID_13_" cx="1864.0107" cy="674.2314" r="447.985" gradientTransform="matrix(-1.3089 0 0 -1.216 2838.4951 1137.5674)" gradientUnits="userSpaceOnUse">
		<stop  offset="0.1624" style="stop-color:#E5D6DE"/>
		<stop  offset="0.5787" style="stop-color:#CAADBC"/>
		<stop  offset="0.8274" style="stop-color:#B0839B"/>
		<stop  offset="1" style="stop-color:#846274"/>
	</radialGradient>
	<polygon fill="url(#SVGID_13_)" points="345.237,0.308 401.068,321.195 403.912,0.308 	"/>
	
		<radialGradient id="SVGID_14_" cx="1864.0117" cy="674.2314" r="447.9938" gradientTransform="matrix(-1.3089 0 0 -1.216 2838.4951 1137.5674)" gradientUnits="userSpaceOnUse">
		<stop  offset="0.1624" style="stop-color:#E5D6DE"/>
		<stop  offset="0.5787" style="stop-color:#CAADBC"/>
		<stop  offset="0.8274" style="stop-color:#B0839B"/>
		<stop  offset="1" style="stop-color:#846274"/>
	</radialGradient>
	<polygon fill="url(#SVGID_14_)" points="25.279,0.308 401.068,321.195 166.663,0.308 	"/>
	
		<radialGradient id="SVGID_15_" cx="1864.0127" cy="674.2295" r="447.9939" gradientTransform="matrix(-1.3089 0 0 -1.216 2838.4951 1137.5674)" gradientUnits="userSpaceOnUse">
		<stop  offset="0.1624" style="stop-color:#E5D6DE"/>
		<stop  offset="0.5787" style="stop-color:#CAADBC"/>
		<stop  offset="0.8274" style="stop-color:#B0839B"/>
		<stop  offset="1" style="stop-color:#846274"/>
	</radialGradient>
	<polygon fill="url(#SVGID_15_)" points="-0.523,224.164 401.068,321.195 -0.523,87.872 	"/>
	
		<radialGradient id="SVGID_16_" cx="1864.0127" cy="674.2295" r="448.0009" gradientTransform="matrix(-1.3089 0 0 -1.216 2838.4951 1137.5674)" gradientUnits="userSpaceOnUse">
		<stop  offset="0.1624" style="stop-color:#E5D6DE"/>
		<stop  offset="0.5787" style="stop-color:#CAADBC"/>
		<stop  offset="0.8274" style="stop-color:#B0839B"/>
		<stop  offset="1" style="stop-color:#846274"/>
	</radialGradient>
	<polygon fill="url(#SVGID_16_)" points="-0.523,439.147 401.068,321.195 -0.523,311.279 	"/>
	
		<radialGradient id="SVGID_17_" cx="1864.0117" cy="674.2314" r="447.9839" gradientTransform="matrix(-1.3089 0 0 -1.216 2838.4951 1137.5674)" gradientUnits="userSpaceOnUse">
		<stop  offset="0.1624" style="stop-color:#E5D6DE"/>
		<stop  offset="0.5787" style="stop-color:#CAADBC"/>
		<stop  offset="0.8274" style="stop-color:#B0839B"/>
		<stop  offset="1" style="stop-color:#846274"/>
	</radialGradient>
	<polygon fill="url(#SVGID_17_)" points="443.877,0.308 401.068,321.195 505.955,0.308 	"/>
</g>
<g display="none">
	<polygon display="inline" fill="#20555B" points="628.534,223.18 742.851,216.078 754.6,350.608 621.005,347.138 	"/>
	<polygon display="inline" fill="#20555B" points="607.145,351.61 492.997,357.71 480.351,222.926 613.827,227.578 	"/>
	<polygon display="inline" fill="#20555B" points="349.021,237.296 463.34,230.195 475.084,364.725 341.495,361.255 	"/>
	<polygon display="inline" fill="#20555B" points="325.433,343.706 210.92,346.873 204.372,212.028 337.74,220.087 	"/>
	<polygon display="inline" fill="#20555B" points="70.248,242.559 184.564,235.458 196.312,369.986 62.717,366.517 	"/>
</g>
<linearGradient id="SVGID_18_" gradientUnits="userSpaceOnUse" x1="76.082" y1="318.0234" x2="209.6758" y2="318.0234">
	<stop  offset="0.2335" style="stop-color:#F9A94B"/>
	<stop  offset="0.8629" style="stop-color:#B96F17"/>
</linearGradient>
<polygon display="none" fill="url(#SVGID_18_)" points="83.609,257.856 197.927,250.758 209.676,385.289 76.082,381.817 "/>
<linearGradient id="SVGID_19_" gradientUnits="userSpaceOnUse" x1="204.2593" y1="295.9434" x2="337.853" y2="295.9434">
	<stop  offset="0.1675" style="stop-color:#58CC76"/>
	<stop  offset="0.5533" style="stop-color:#2EBF54"/>
	<stop  offset="0.8629" style="stop-color:#238F3F"/>
</linearGradient>
<polygon display="none" fill="url(#SVGID_19_)" points="211.787,235.776 326.104,228.678 337.853,363.208 204.259,359.737 "/>
<linearGradient id="SVGID_20_" gradientUnits="userSpaceOnUse" x1="345.5103" y1="307.0674" x2="479.1035" y2="307.0674">
	<stop  offset="0" style="stop-color:#F7E47D"/>
	<stop  offset="0.3249" style="stop-color:#F7E47C"/>
	<stop  offset="0.5127" style="stop-color:#F7E581"/>
	<stop  offset="0.7107" style="stop-color:#F5DE62"/>
	<stop  offset="0.934" style="stop-color:#F5DE62"/>
</linearGradient>
<polygon display="none" fill="url(#SVGID_20_)" points="353.038,246.9 467.355,239.802 479.104,374.333 345.51,370.861 "/>
<linearGradient id="SVGID_21_" gradientUnits="userSpaceOnUse" x1="492.1895" y1="274.582" x2="616.1959" y2="276.5821" gradientTransform="matrix(1 0 0 -0.8903 0 548.9834)">
	<stop  offset="0" style="stop-color:#00D4EA"/>
	<stop  offset="1" style="stop-color:#009BA3"/>
</linearGradient>
<polygon display="none" fill="url(#SVGID_21_)" points="497.463,363.064 611.781,370.184 623.529,235.26 489.936,238.741 "/>
<linearGradient id="SVGID_22_" gradientUnits="userSpaceOnUse" x1="634.8545" y1="303.8008" x2="754.8545" y2="295.8008">
	<stop  offset="0" style="stop-color:#BA66EA"/>
	<stop  offset="0.5584" style="stop-color:#6900A5"/>
	<stop  offset="1" style="stop-color:#4F007C"/>
</linearGradient>
<polygon display="none" fill="url(#SVGID_22_)" points="636.463,235.776 750.781,228.678 762.529,363.208 628.936,359.737 "/>
<polygon display="none" fill="#BE4B89" points="233.039,150.477 235.31,143.684 221.729,139.134 219.458,145.932 "/>
<path display="none" fill="#BE4B89" d="M192.537,139.357c3.096-0.724,5.026-3.827,4.303-6.926c-0.727-3.1-3.832-5.022-6.928-4.298
	c-3.101,0.723-5.027,3.824-4.305,6.924C186.334,138.152,189.437,140.083,192.537,139.357z"/>
<g display="none">
	<path display="inline" fill="#FFFFFF" d="M135.195,313.274h16.411v-35.873c0-7.469,2.525-11.257,5.471-11.257
		c3.05,0,5.575,4.103,5.575,5.575c0,1.579-2.841-0.947-2.841,7.891v65.96c0,1.789-1.367,2.419-2.945,2.419
		c-2.419,0-5.26-1.473-5.26-3.05v-24.301h-16.411v24.932c0,1.789-1.368,2.419-2.946,2.419c-2.419,0-5.26-1.473-5.26-3.05v-24.301
		h-7.469c-2.208,0-3.787-3.051-3.787-5.26c0-1.158,0.526-2.104,1.578-2.104h9.678v-33.979c-12.939,0-22.302,8.941-22.302,23.037
		c0,8.837,4.208,14.519,5.576,14.519c0.631,0,0.736-0.526,1.263-0.526c0.526,0,0.631,0.947,0.631,1.684
		c0,4.417-3.892,8.205-6.943,5.997c-3.682-2.63-8.836-9.785-8.836-21.356c0-22.303,18.621-31.245,34.611-31.245
		c2.209,0,4.208,1.894,4.208,4.418V313.274z"/>
</g>
<g display="none">
	<path display="inline" fill="none" stroke="#FFFFFF" stroke-width="2" stroke-miterlimit="10" d="M300.409,313.639v14.428h-28.857
		v-14.428h6.802l-2.164-7.214h-22.261l-2.165,7.214h6.802v14.428H229.71v-14.428h7.008l17.314-57.713h22.055l17.314,57.713H300.409z
		 M271.861,291.997l-6.493-21.643h-0.618l-6.492,21.643H271.861z"/>
</g>
<g display="none">
	<path display="inline" fill="#FFFFFF" d="M563.201,252.82c3.778,0,7.35,0.72,10.719,2.155c3.367,1.439,6.303,3.41,8.81,5.915
		c2.505,2.506,4.476,5.441,5.914,8.81c1.438,3.369,2.155,6.941,2.155,10.719c0,3.862-0.718,7.454-2.155,10.781
		c-1.438,3.327-3.409,6.244-5.914,8.748c-2.507,2.506-5.442,4.478-8.81,5.914c-3.369,1.438-6.94,2.156-10.719,2.156h-14.662v13.8
		h8.624v17.249h-34.498v-17.249h8.625v-51.748h-8.625V252.82H563.201z M563.201,290.769c2.874,0,5.318-1.005,7.332-3.019
		c2.009-2.012,3.016-4.454,3.016-7.331c0-2.874-1.007-5.317-3.016-7.331c-2.014-2.013-4.458-3.019-7.332-3.019h-14.662v20.699
		H563.201z"/>
</g>
<g display="none">
	<path display="inline" fill="#FFFFFF" d="M400.509,277.801c0-2.519-0.528-3.314-0.528-4.242c0-1.326,1.588-2.254,3.443-2.254
		c4.376,0,7.425,2.651,7.425,5.833v43.347c9.015-1.061,27.175-11.134,27.175-33.405c0-10.075-6.098-22.668-21.605-22.668
		c-21.344,0-29.962,14.052-29.962,30.224c0,11.666,4.773,15.774,5.04,16.171c1.457-0.397,1.987,0.531,1.987,1.857
		c0,2.385-3.579,11.134-7.424,8.219c-2.119-1.989-9.676-9.943-9.676-25.452c0-24.789,16.304-40.961,39.899-40.961
		c19.354,0,31.946,13.521,31.946,32.344c0,23.065-17.896,39.9-37.381,43.612v17.497c0,2.254-1.725,3.049-3.712,3.049
		c-3.049,0-6.628-1.855-6.628-3.844V277.801z"/>
</g>
<g display="none">
	<path display="inline" fill="none" stroke="#FFFFFF" stroke-width="2" d="M679.931,333.508h8.659v-25.53l-21.818-49.6h-7.423
		v-2.025h34.641v2.025h-8.099l18.559,42.514l13.385-30.368c1.349-3.261,2.248-5.848,2.248-7.76c0-2.925-1.687-4.386-6.748-4.386
		h-1.463v-2.025h20.246v2.025h-0.787c-3.824,0-6.411,2.136-9.898,10.572l-15.295,34.304v30.254h8.66v2.025h-34.866V333.508z"/>
</g>
<g display="none">
	<g display="inline">
		<path fill="#20555B" d="M205.6,430.431c-3.576,0-8.344-5.516-8.344-10.58c0-1.344,0.297-2.534,1.043-3.726
			c6.258-10.433,19.521-16.842,32.785-16.842c18.331,0,36.511,13.562,36.511,34.277c0,12.069-6.109,23.844-17.287,29.06
			c6.409,3.427,9.389,9.537,9.389,16.096c0,12.667-11.922,27.122-30.699,27.122c-24.738,0-38.896-7.004-38.896-12.073
			c0-3.277,3.428-6.704,7.004-6.704c3.129,0,4.769,3.278,8.643,6.704c10.283-6.108,10.878-50.519,19.224-76
			c0.746-2.535,2.981-3.578,5.515-3.578c4.023,0,8.643,2.831,8.643,6.557c0,0.446,0,0.896-0.149,1.342
			c-6.408,20.862-8.941,68.402-29.059,74.959c4.172,3.129,9.984,5.664,15.946,5.664c12.219,0,19.969-13.411,19.969-24.89
			c0-5.064-1.491-9.686-4.769-12.814c-1.192,0.147-2.385,0.299-3.577,0.299c-3.28,0-6.26-0.598-6.26-2.532
			c0-2.236,2.832-3.13,5.812-3.13c1.49,0,2.683,0.148,4.024,0.296c7.302-5.215,12.965-19.223,12.965-32.784
			c0-6.259-1.192-12.667-3.875-17.883l-0.149-0.15c-3.576-1.787-7.45-2.531-11.176-2.531c-11.774,0-23.993,8.045-30.104,21.606
			C207.984,429.835,206.941,430.431,205.6,430.431z"/>
		<path fill="#20555B" d="M280.116,490.636c0,3.129,0.745,4.919,2.683,4.919c5.514,0,13.71-18.032,15.35-21.312
			c0.894-1.64,1.788-2.532,2.534-2.532c0.595,0,1.043,0.597,1.043,1.489c0,0.747-0.149,1.489-0.597,2.532
			c-2.086,5.218-10.73,29.656-23.247,29.656c-5.812,0-10.73-4.172-10.73-15.35c0-8.941,5.663-36.511,11.624-58.416
			c0.745-2.536,3.129-3.875,5.961-3.875c3.726,0,7.749,2.532,7.749,7.6C292.484,443.246,280.116,479.163,280.116,490.636z
			 M280.414,413.738c0-6.406,5.215-14.753,13.412-14.753c6.11,0,8.792,3.577,8.792,7.749c0,6.262-6.11,14.159-15.498,14.159
			C282.5,420.894,280.414,417.614,280.414,413.738z"/>
		<path fill="#20555B" d="M305.897,500.921c-0.447,3.276-2.98,4.917-5.514,4.917c-2.832,0-5.663-2.087-5.663-6.558
			c0-10.433,5.067-39.79,11.772-62.741c0.745-2.532,3.129-3.726,5.663-3.726c3.427,0,7.303,2.386,7.303,6.559
			c0,2.532-1.788,6.258-2.534,8.941c5.365-11.474,11.922-19.82,19.225-19.82c5.515,0,7.601,3.277,7.601,9.686
			c0,8.347-7.153,22.204-7.153,27.422c0,2.086,1.192,3.277,3.427,3.277c4.918,0,11.028-10.877,13.562-16.689
			c0.895-2.236,1.937-3.577,2.831-3.577c1.64,0,1.042,3.129,0.745,4.172c-2.236,8.495-10.878,21.906-21.161,21.906
			c-5.961,0-11.624-2.532-11.624-11.473c0-8.197,6.556-18.184,6.556-22.802c0-1.043-0.446-1.79-1.49-1.79
			c-5.066,0-17.288,21.312-21.161,46.497L305.897,500.921z"/>
		<path fill="#20555B" d="M357.162,428.939c1.788-6.707,3.577-13.115,5.515-19.223c0.745-2.533,3.277-3.727,6.109-3.727
			c3.726,0,7.75,2.385,7.75,7.452c0,3.726-2.235,10.281-3.875,16.242c7.303,0.596,14.157,1.042,14.157,3.129
			c0,2.086-5.514,3.578-16.392,4.769c-5.663,19.672-12.668,42.771-12.668,53.5c0,3.876,0.895,6.261,3.13,6.261
			c5.812,0,13.413-16.393,17.584-23.1c1.044-1.787,1.788-2.683,2.534-2.683c0.596,0,1.043,0.597,1.043,1.64
			c0,0.597-0.149,1.489-0.596,2.532c-2.088,5.218-12.369,29.656-24.888,29.656c-5.812,0-10.73-4.172-10.73-15.35
			c0-9.834,3.726-30.848,8.942-52.156l-4.769-0.449c-1.789-0.147-2.534-2.086-2.534-4.024c0-2.233,1.042-4.617,2.683-4.617
			C352.394,428.792,354.778,428.792,357.162,428.939z"/>
		<path fill="#20555B" d="M414.538,494.065c0,2.383,0.744,3.726,2.683,3.726c4.917,0,9.834-11.479,16.094-23.548
			c0.745-1.489,1.938-2.532,2.683-2.532c0.596,0,0.894,0.446,0.894,1.339c0,0.597-0.148,1.492-0.595,2.683
			c-2.088,5.365-9.538,30.105-22.504,30.105c-5.961,0-11.624-4.175-11.624-13.116c0-12.963,11.772-40.533,11.772-50.371
			c0-2.234-0.595-3.575-2.086-3.575c-4.321,0-16.094,17.586-22.502,45.304c-3.428,16.094-2.981,21.759-8.942,21.759
			c-2.83,0-5.663-2.087-5.663-6.558c0-9.688,10.432-62.591,20.566-96.718c0.744-2.682,3.129-3.873,5.812-3.873
			c3.576,0,7.452,2.382,7.452,6.258c0,4.77-4.174,13.113-11.476,45.005c5.365-11.773,11.922-20.416,18.777-20.416
			c8.792,0,11.027,7.003,11.027,12.519C426.906,458.596,414.538,484.378,414.538,494.065z"/>
		<path fill="#20555B" d="M472.062,490.189c0,4.024,0.893,6.259,2.979,6.259c5.217,0,11.475-14.009,15.499-22.205
			c0.745-1.64,1.937-2.532,2.683-2.532c0.596,0,0.894,0.597,0.894,1.489c0,0.597-0.148,1.489-0.595,2.532
			c-3.726,9.092-9.687,29.656-24.292,29.656c-5.961,0-9.389-6.406-9.389-15.35c0-0.446,0-1.339,0.149-2.234
			c-5.066,10.88-11.028,17.584-16.095,17.584c-8.048,0-11.475-8.643-11.475-20.267c0-22.653,13.114-56.33,30.251-56.33
			c4.024,0,6.408,3.575,7.75,7.152c3.129-14.008,6.557-27.422,8.793-35.618c0.596-2.234,2.532-3.277,4.77-3.277
			c3.725,0,8.195,2.979,8.195,8.494C492.18,415.229,472.062,472.902,472.062,490.189z M469.08,442.055
			c-0.148-1.938-0.894-4.621-4.171-4.621c-9.985,0-19.075,34.874-19.075,50.52c0,4.473,0.744,7.303,2.532,7.303
			c5.961,0,11.773-14.902,16.244-32.787C465.951,456.063,467.441,449.058,469.08,442.055z"/>
		<path fill="#20555B" d="M529.585,492.872c0,2.236,0.745,3.726,2.087,3.726c3.129,0,7.748-7.897,14.753-22.354
			c0.745-1.64,1.938-2.532,2.683-2.532c0.446,0,0.895,0.446,0.895,1.489c0,0.597-0.15,1.489-0.596,2.532
			c-2.088,5.218-11.477,29.656-22.95,29.656c-4.62,0-10.135-2.533-10.135-13.71c0-0.745,0-1.788,0.149-2.831
			c-4.918,10.135-10.581,16.541-15.35,16.541c-8.047,0-11.475-8.643-11.475-20.267c0-22.653,13.113-56.33,30.251-56.33
			c5.961,0,9.688,6.407,9.985,11.026h0.894c3.727,0,8.196,3.129,8.196,8.646c0,0.742,0,1.488-0.147,2.234
			C534.801,469.625,529.585,485.719,529.585,492.872z M521.389,464.558l4.769-21.46c0-2.532-0.447-5.664-4.022-5.664
			c-9.985,0-19.076,34.874-19.076,50.52c0,4.473,0.745,7.303,2.533,7.303C511.105,495.256,517.662,481.098,521.389,464.558z"/>
		<path fill="#20555B" d="M538.678,539.071c0-16.393,15.797-22.506,30.848-31.742c0.597-4.474,1.344-9.391,2.236-14.607
			c-3.876,8.049-8.941,12.667-15.2,12.667c-8.942,0-11.922-6.258-11.922-15.646c0-15.054,7.45-38.003,10.729-56.334
			c0.447-2.979,2.683-4.171,5.366-4.171c3.874,0,8.345,2.833,8.345,6.559c0,5.215-2.385,12.814-4.173,20.86
			c-2.98,13.115-6.109,27.123-6.109,32.936c0,3.577,0.895,5.663,3.129,5.663c8.046,0,11.029-17.287,17.583-42.771
			c2.387-11.178,4.175-19.076,4.175-19.076c0.595-2.532,2.98-3.725,5.514-3.725c3.726,0,7.897,2.387,7.897,5.812
			c0,4.024-2.382,5.664-11.919,60.354c5.957-5.512,11.473-12.365,15.943-21.607c0.744-1.64,1.938-2.683,2.683-2.683
			c0.594,0,0.896,0.445,0.896,1.489c0,0.597-0.15,1.492-0.598,2.683c-5.516,13.86-12.967,22.952-20.563,29.656
			c-6.71,35.321-17.885,48.284-29.657,48.284C546.576,553.673,538.678,547.265,538.678,539.071z M550.451,549.055
			c14.009,0,16.691-22.65,17.883-32.489c-10.582,6.707-23.397,13.86-23.397,25.782c0,3.279,1.789,5.218,4.024,6.557
			C549.408,549.055,549.854,549.055,550.451,549.055z"/>
		<path fill="#20555B" d="M603.805,497.641c0-6.258,5.215-13.709,13.409-13.709c6.112,0,8.645,3.873,8.645,8.344
			c0,6.258-5.064,13.71-12.966,13.71C607.977,505.985,603.805,503.302,603.805,497.641z M619.896,474.243
			c-1.191,0-2.383-1.193-2.383-3.575c0-0.597,0-1.043,0.148-1.641c4.024-23.099,10.135-47.536,18.48-73.768
			c1.191-4.021,4.77-5.959,8.495-5.959c3.871,0,7.597,2.384,7.597,6.854c0,1.341-0.295,2.831-0.893,4.32
			c-11.328,26.678-20.715,47.392-28.166,70.489C622.431,473.2,620.938,474.243,619.896,474.243z"/>
	</g>
	<g display="inline">
		<path fill="#FFFFFF" d="M196.919,421.75c-3.576,0-8.344-5.516-8.344-10.58c0-1.344,0.297-2.534,1.043-3.726
			c6.258-10.433,19.521-16.842,32.785-16.842c18.331,0,36.511,13.562,36.511,34.277c0,12.069-6.109,23.844-17.287,29.06
			c6.409,3.427,9.389,9.537,9.389,16.096c0,12.667-11.922,27.122-30.699,27.122c-24.738,0-38.896-7.004-38.896-12.073
			c0-3.277,3.428-6.704,7.004-6.704c3.129,0,4.769,3.278,8.643,6.704c10.283-6.108,10.878-50.519,19.224-76
			c0.746-2.535,2.981-3.578,5.515-3.578c4.023,0,8.643,2.831,8.643,6.557c0,0.446,0,0.896-0.149,1.342
			c-6.408,20.862-8.941,68.402-29.059,74.959c4.172,3.129,9.984,5.664,15.946,5.664c12.219,0,19.969-13.411,19.969-24.89
			c0-5.064-1.491-9.686-4.769-12.814c-1.192,0.147-2.385,0.299-3.577,0.299c-3.28,0-6.26-0.598-6.26-2.532
			c0-2.236,2.832-3.13,5.812-3.13c1.49,0,2.683,0.148,4.024,0.296c7.302-5.215,12.965-19.223,12.965-32.784
			c0-6.259-1.192-12.667-3.875-17.882l-0.149-0.15c-3.576-1.788-7.45-2.532-11.176-2.532c-11.774,0-23.993,8.045-30.104,21.607
			C199.304,421.154,198.261,421.75,196.919,421.75z"/>
		<path fill="#FFFFFF" d="M271.435,481.955c0,3.129,0.745,4.919,2.683,4.919c5.514,0,13.71-18.032,15.35-21.312
			c0.894-1.64,1.788-2.532,2.534-2.532c0.595,0,1.043,0.597,1.043,1.489c0,0.747-0.149,1.489-0.597,2.532
			c-2.086,5.218-10.73,29.656-23.247,29.656c-5.812,0-10.73-4.172-10.73-15.35c0-8.941,5.663-36.511,11.624-58.416
			c0.745-2.536,3.129-3.875,5.961-3.875c3.726,0,7.749,2.532,7.749,7.6C283.804,434.565,271.435,470.482,271.435,481.955z
			 M271.733,405.058c0-6.407,5.215-14.753,13.412-14.753c6.11,0,8.792,3.578,8.792,7.75c0,6.261-6.11,14.159-15.498,14.159
			C273.82,412.213,271.733,408.934,271.733,405.058z"/>
		<path fill="#FFFFFF" d="M297.217,492.24c-0.447,3.276-2.98,4.917-5.514,4.917c-2.832,0-5.663-2.087-5.663-6.558
			c0-10.433,5.067-39.79,11.772-62.741c0.745-2.532,3.129-3.726,5.663-3.726c3.427,0,7.303,2.386,7.303,6.559
			c0,2.532-1.788,6.258-2.534,8.941c5.365-11.474,11.922-19.82,19.225-19.82c5.515,0,7.601,3.277,7.601,9.686
			c0,8.347-7.153,22.204-7.153,27.422c0,2.086,1.192,3.277,3.427,3.277c4.918,0,11.028-10.877,13.562-16.689
			c0.895-2.236,1.937-3.577,2.831-3.577c1.64,0,1.042,3.129,0.745,4.172c-2.236,8.495-10.878,21.906-21.161,21.906
			c-5.961,0-11.624-2.532-11.624-11.473c0-8.197,6.556-18.184,6.556-22.802c0-1.043-0.446-1.79-1.49-1.79
			c-5.066,0-17.288,21.312-21.161,46.497L297.217,492.24z"/>
		<path fill="#FFFFFF" d="M348.481,420.259c1.788-6.707,3.577-13.115,5.514-19.223c0.746-2.533,3.278-3.727,6.11-3.727
			c3.726,0,7.75,2.385,7.75,7.452c0,3.726-2.235,10.281-3.875,16.242c7.303,0.596,14.157,1.042,14.157,3.129
			c0,2.086-5.514,3.578-16.392,4.769c-5.663,19.672-12.668,42.771-12.668,53.5c0,3.876,0.895,6.261,3.13,6.261
			c5.812,0,13.413-16.393,17.584-23.1c1.044-1.787,1.788-2.683,2.534-2.683c0.596,0,1.043,0.597,1.043,1.64
			c0,0.597-0.149,1.489-0.596,2.532c-2.088,5.218-12.369,29.656-24.888,29.656c-5.812,0-10.73-4.172-10.73-15.35
			c0-9.834,3.726-30.848,8.942-52.156l-4.769-0.449c-1.789-0.147-2.534-2.086-2.534-4.024c0-2.233,1.042-4.617,2.683-4.617
			C343.713,420.111,346.098,420.111,348.481,420.259z"/>
		<path fill="#FFFFFF" d="M405.857,485.385c0,2.383,0.744,3.726,2.683,3.726c4.917,0,9.834-11.479,16.094-23.548
			c0.745-1.489,1.938-2.532,2.683-2.532c0.596,0,0.894,0.446,0.894,1.339c0,0.597-0.148,1.492-0.595,2.683
			c-2.088,5.365-9.538,30.105-22.504,30.105c-5.961,0-11.624-4.175-11.624-13.116c0-12.963,11.772-40.533,11.772-50.371
			c0-2.234-0.595-3.575-2.086-3.575c-4.321,0-16.094,17.586-22.502,45.304c-3.428,16.094-2.981,21.759-8.942,21.759
			c-2.83,0-5.663-2.087-5.663-6.558c0-9.688,10.432-62.591,20.566-96.717c0.744-2.683,3.129-3.874,5.812-3.874
			c3.576,0,7.452,2.382,7.452,6.258c0,4.77-4.174,13.113-11.476,45.005c5.365-11.773,11.922-20.416,18.777-20.416
			c8.792,0,11.027,7.003,11.027,12.519C418.226,449.915,405.857,475.697,405.857,485.385z"/>
		<path fill="#FFFFFF" d="M463.382,481.509c0,4.024,0.893,6.259,2.979,6.259c5.217,0,11.475-14.009,15.499-22.205
			c0.745-1.64,1.937-2.532,2.683-2.532c0.596,0,0.894,0.597,0.894,1.489c0,0.597-0.148,1.489-0.595,2.532
			c-3.726,9.092-9.687,29.656-24.292,29.656c-5.961,0-9.389-6.406-9.389-15.35c0-0.446,0-1.339,0.149-2.234
			c-5.066,10.88-11.028,17.584-16.095,17.584c-8.048,0-11.475-8.643-11.475-20.267c0-22.653,13.114-56.33,30.251-56.33
			c4.024,0,6.408,3.575,7.75,7.152c3.129-14.008,6.557-27.422,8.793-35.618c0.596-2.234,2.532-3.277,4.77-3.277
			c3.725,0,8.195,2.979,8.195,8.494C483.499,406.549,463.382,464.222,463.382,481.509z M460.399,433.374
			c-0.148-1.938-0.894-4.621-4.171-4.621c-9.985,0-19.075,34.874-19.075,50.52c0,4.473,0.744,7.303,2.532,7.303
			c5.961,0,11.773-14.902,16.244-32.787C457.271,447.383,458.761,440.377,460.399,433.374z"/>
		<path fill="#FFFFFF" d="M520.904,484.191c0,2.236,0.745,3.726,2.087,3.726c3.129,0,7.748-7.897,14.753-22.354
			c0.745-1.64,1.938-2.532,2.683-2.532c0.446,0,0.895,0.446,0.895,1.489c0,0.597-0.15,1.489-0.596,2.532
			c-2.088,5.218-11.477,29.656-22.95,29.656c-4.62,0-10.135-2.533-10.135-13.71c0-0.745,0-1.788,0.149-2.831
			c-4.918,10.135-10.581,16.541-15.35,16.541c-8.047,0-11.475-8.643-11.475-20.267c0-22.653,13.113-56.33,30.251-56.33
			c5.961,0,9.688,6.407,9.985,11.026h0.894c3.727,0,8.196,3.129,8.196,8.646c0,0.742,0,1.488-0.147,2.234
			C526.12,460.944,520.904,477.038,520.904,484.191z M512.708,455.877l4.769-21.46c0-2.532-0.447-5.664-4.022-5.664
			c-9.985,0-19.076,34.874-19.076,50.52c0,4.473,0.745,7.303,2.533,7.303C502.425,486.575,508.981,472.417,512.708,455.877z"/>
		<path fill="#FFFFFF" d="M529.997,530.391c0-16.393,15.797-22.506,30.848-31.742c0.597-4.474,1.344-9.391,2.236-14.607
			c-3.876,8.049-8.941,12.667-15.2,12.667c-8.942,0-11.922-6.258-11.922-15.646c0-15.054,7.45-38.003,10.729-56.334
			c0.447-2.979,2.683-4.171,5.366-4.171c3.874,0,8.345,2.833,8.345,6.559c0,5.215-2.385,12.814-4.173,20.86
			c-2.98,13.115-6.109,27.123-6.109,32.936c0,3.577,0.895,5.663,3.129,5.663c8.046,0,11.029-17.287,17.583-42.771
			c2.387-11.178,4.175-19.076,4.175-19.076c0.595-2.532,2.98-3.725,5.514-3.725c3.726,0,7.897,2.387,7.897,5.812
			c0,4.024-2.382,5.664-11.919,60.354c5.957-5.512,11.473-12.365,15.943-21.607c0.744-1.64,1.938-2.683,2.683-2.683
			c0.594,0,0.896,0.445,0.896,1.489c0,0.597-0.15,1.492-0.598,2.683c-5.516,13.86-12.967,22.952-20.563,29.656
			c-6.71,35.321-17.885,48.284-29.657,48.284C537.896,544.992,529.997,538.584,529.997,530.391z M541.771,540.374
			c14.009,0,16.691-22.65,17.883-32.489c-10.582,6.707-23.397,13.86-23.397,25.782c0,3.279,1.789,5.218,4.024,6.557
			C540.728,540.374,541.174,540.374,541.771,540.374z"/>
		<path fill="#FFFFFF" d="M595.124,488.96c0-6.258,5.215-13.709,13.409-13.709c6.112,0,8.645,3.873,8.645,8.344
			c0,6.258-5.064,13.71-12.966,13.71C599.296,497.305,595.124,494.621,595.124,488.96z M611.216,465.562
			c-1.191,0-2.383-1.193-2.383-3.575c0-0.597,0-1.043,0.148-1.641c4.024-23.099,10.135-47.536,18.48-73.768
			c1.191-4.021,4.77-5.959,8.495-5.959c3.871,0,7.597,2.384,7.597,6.854c0,1.341-0.295,2.831-0.893,4.32
			c-11.328,26.678-20.715,47.392-28.166,70.489C613.75,464.52,612.258,465.562,611.216,465.562z"/>
	</g>
</g>
<linearGradient id="SVGID_23_" gradientUnits="userSpaceOnUse" x1="708.8467" y1="670.6768" x2="720.8923" y2="801.975">
	<stop  offset="0.0305" style="stop-color:#99EEF7"/>
	<stop  offset="0.3401" style="stop-color:#00D4EA"/>
	<stop  offset="0.665" style="stop-color:#009BA3"/>
	<stop  offset="0.9442" style="stop-color:#00777D"/>
</linearGradient>
<path display="none" fill="none" stroke="url(#SVGID_23_)" stroke-width="3" stroke-linecap="round" stroke-linejoin="round" stroke-miterlimit="10" d="
	M716.5,671.481c0,0-32.349,16.368-8.5,59.519s29.5,50.5,18,69"/>
<linearGradient id="SVGID_24_" gradientUnits="userSpaceOnUse" x1="544.5557" y1="749.6035" x2="583.3066" y2="749.6035">
	<stop  offset="0.0305" style="stop-color:#FBCB93"/>
	<stop  offset="0.3807" style="stop-color:#F9A94B"/>
	<stop  offset="0.6751" style="stop-color:#B96F17"/>
	<stop  offset="0.9898" style="stop-color:#8E5614"/>
</linearGradient>
<path display="none" fill="none" stroke="url(#SVGID_24_)" stroke-width="4" stroke-miterlimit="10" d="M562.849,682.824
	c0,0,34.574,17.103,9.085,62.187c-25.49,45.085-31.53,52.764-19.238,72.093"/>
<linearGradient id="SVGID_25_" gradientUnits="userSpaceOnUse" x1="414.8281" y1="754.3994" x2="443.3359" y2="754.3994">
	<stop  offset="0.0355" style="stop-color:#9BE0AD"/>
	<stop  offset="0.3046" style="stop-color:#58CC76"/>
	<stop  offset="0.5787" style="stop-color:#2EBF54"/>
	<stop  offset="0.7767" style="stop-color:#238F3F"/>
	<stop  offset="0.9797" style="stop-color:#1A6B2F"/>
</linearGradient>
<path display="none" fill="none" stroke="url(#SVGID_25_)" stroke-width="4" stroke-miterlimit="10" d="M430.066,709.085
	c0,0-10.066,18.896-2.566,26.655s17.473,5.642,12.5,22.76s-24.664,36.928-23.082,41.5"/>
<linearGradient id="SVGID_26_" gradientUnits="userSpaceOnUse" x1="305.3423" y1="638.5869" x2="320.664" y2="805.5945">
	<stop  offset="0.0305" style="stop-color:#99EEF7"/>
	<stop  offset="0.3401" style="stop-color:#00D4EA"/>
	<stop  offset="0.665" style="stop-color:#009BA3"/>
	<stop  offset="0.9442" style="stop-color:#00777D"/>
</linearGradient>
<path display="none" fill="none" stroke="url(#SVGID_26_)" stroke-width="4" stroke-linecap="round" stroke-linejoin="round" stroke-miterlimit="10" d="
	M317.73,639.459c0,0-7.261,12.541-2.746,28.041s13.326,85.832,1.921,113.166s-8.264,23.906-8.264,23.906"/>
<linearGradient id="SVGID_27_" gradientUnits="userSpaceOnUse" x1="200.103" y1="772.9121" x2="214.9131" y2="772.9121">
	<stop  offset="0" style="stop-color:#BA66EA"/>
	<stop  offset="0.4569" style="stop-color:#6900A5"/>
	<stop  offset="0.8223" style="stop-color:#4F007C"/>
	<stop  offset="0.9848" style="stop-color:#3E0060"/>
</linearGradient>
<path display="none" fill="none" stroke="url(#SVGID_27_)" stroke-width="4" stroke-miterlimit="10" d="M209.674,746.492
	c0,0-10.674,9.566-6.674,24.787S213.09,800,213.09,800"/>
<linearGradient id="SVGID_28_" gradientUnits="userSpaceOnUse" x1="66.1421" y1="719.0684" x2="86.1958" y2="719.0684">
	<stop  offset="0.0355" style="stop-color:#9BE0AD"/>
	<stop  offset="0.3046" style="stop-color:#58CC76"/>
	<stop  offset="0.5787" style="stop-color:#2EBF54"/>
	<stop  offset="0.7767" style="stop-color:#238F3F"/>
	<stop  offset="0.9797" style="stop-color:#1A6B2F"/>
</linearGradient>
<path display="none" fill="none" stroke="url(#SVGID_28_)" stroke-width="4" stroke-miterlimit="10" d="M79.169,639.459
	c0,0-14.669,13.998-10.169,50.77S88.5,740.5,83,759.5S76.169,800,76.169,800"/>
<g display="none">
	<linearGradient id="SVGID_29_" gradientUnits="userSpaceOnUse" x1="710.4395" y1="549.4512" x2="722.2741" y2="678.4496">
		<stop  offset="0.0305" style="stop-color:#99EEF7"/>
		<stop  offset="0.3401" style="stop-color:#00D4EA"/>
		<stop  offset="0.665" style="stop-color:#009BA3"/>
		<stop  offset="0.9442" style="stop-color:#00777D"/>
	</linearGradient>
	<path display="inline" fill="url(#SVGID_29_)" d="M758.688,574.978c-7.772-16.028-24.196-27.08-43.203-27.08
		c-19.005,0-35.427,11.052-43.198,27.08l0,0c0,0-33.101,56.468,43.198,99.129C791.785,631.445,758.688,574.978,758.688,574.978z"/>
</g>
<g display="none">
	<linearGradient id="SVGID_30_" gradientUnits="userSpaceOnUse" x1="74.624" y1="519.3047" x2="86.4586" y2="648.3021">
		<stop  offset="0.0355" style="stop-color:#9BE0AD"/>
		<stop  offset="0.3046" style="stop-color:#58CC76"/>
		<stop  offset="0.5787" style="stop-color:#2EBF54"/>
		<stop  offset="0.7767" style="stop-color:#238F3F"/>
		<stop  offset="0.9797" style="stop-color:#1A6B2F"/>
	</linearGradient>
	<path display="inline" fill="url(#SVGID_30_)" d="M122.872,544.83c-7.772-16.028-24.196-27.08-43.203-27.08
		c-19.005,0-35.427,11.052-43.198,27.08l0,0c0,0-33.101,56.468,43.198,99.129C155.969,601.298,122.872,544.83,122.872,544.83z"/>
</g>
<g display="none">
	<linearGradient id="SVGID_31_" gradientUnits="userSpaceOnUse" x1="205.1289" y1="621.8379" x2="216.9635" y2="750.8353">
		<stop  offset="0" style="stop-color:#BA66EA"/>
		<stop  offset="0.4569" style="stop-color:#6900A5"/>
		<stop  offset="0.8223" style="stop-color:#4F007C"/>
		<stop  offset="0.9848" style="stop-color:#3E0060"/>
	</linearGradient>
	<path display="inline" fill="url(#SVGID_31_)" d="M253.377,647.363c-7.772-16.028-24.196-27.08-43.203-27.08
		c-19.005,0-35.427,11.052-43.198,27.08l0,0c0,0-33.101,56.468,43.198,99.129C286.474,703.831,253.377,647.363,253.377,647.363z"/>
</g>
<g display="none">
	<linearGradient id="SVGID_32_" gradientUnits="userSpaceOnUse" x1="312.6841" y1="519.3037" x2="324.5187" y2="648.3022">
		<stop  offset="0.0305" style="stop-color:#99EEF7"/>
		<stop  offset="0.3401" style="stop-color:#00D4EA"/>
		<stop  offset="0.665" style="stop-color:#009BA3"/>
		<stop  offset="0.9442" style="stop-color:#00777D"/>
	</linearGradient>
	<path display="inline" fill="url(#SVGID_32_)" d="M360.933,544.83c-7.772-16.028-24.196-27.08-43.203-27.08
		c-19.005,0-35.427,11.052-43.198,27.08l0,0c0,0-33.101,56.468,43.198,99.129C394.029,601.298,360.933,544.83,360.933,544.83z"/>
</g>
<g display="none">
	<linearGradient id="SVGID_33_" gradientUnits="userSpaceOnUse" x1="424.0352" y1="586.9307" x2="435.8697" y2="715.9281">
		<stop  offset="0.0355" style="stop-color:#9BE0AD"/>
		<stop  offset="0.3046" style="stop-color:#58CC76"/>
		<stop  offset="0.5787" style="stop-color:#2EBF54"/>
		<stop  offset="0.7767" style="stop-color:#238F3F"/>
		<stop  offset="0.9797" style="stop-color:#1A6B2F"/>
	</linearGradient>
	<path display="inline" fill="url(#SVGID_33_)" d="M472.284,612.456c-7.773-16.028-24.197-27.08-43.203-27.08
		s-35.427,11.052-43.199,27.08l0,0c0,0-33.101,56.468,43.199,99.129C505.38,668.924,472.284,612.456,472.284,612.456z"/>
</g>
<g display="none">
	<linearGradient id="SVGID_34_" gradientUnits="userSpaceOnUse" x1="563.96" y1="571.5342" x2="575.258" y2="694.6835">
		<stop  offset="0.0305" style="stop-color:#FBCB93"/>
		<stop  offset="0.3807" style="stop-color:#F9A94B"/>
		<stop  offset="0.6751" style="stop-color:#B96F17"/>
		<stop  offset="0.9898" style="stop-color:#8E5614"/>
	</linearGradient>
	<path display="inline" fill="url(#SVGID_34_)" d="M610.021,595.902c-7.421-15.302-23.1-25.853-41.244-25.853
		c-18.144,0-33.82,10.551-41.239,25.853l0,0c0,0-31.601,53.907,41.239,94.635C641.616,649.81,610.021,595.902,610.021,595.902z"/>
</g>
<g display="none">
	<g display="inline">
		<path fill="#BE4B89" d="M73,132.229c-0.964-15.002,3.027-33.635,17.228-41.535c7.614-4.236,17.368-2.515,24.881,1.012
			c9.691,4.549,15.813,14.676,18.949,24.517c0.899,2.821,4.104,17.677-1.057,18.006c-3.352,0.213-6.233-5.129-7.617-7.463
			c-2.256-3.805-3.803-7.966-4.719-12.283c-2.427-11.444,8.307-19.643,18.78-19.661c10.275-0.018,18.795,8.441,23.238,16.931
			c2.991,5.715,11.621,0.66,8.635-5.047c-5.272-10.073-14.185-18.076-25.29-21.012c-11.795-3.119-24.268,1.994-31.354,11.595
			c-6.954,9.42-4.148,21.509,0.355,31.234c3.753,8.104,11.858,18.687,22.125,14.961c8.856-3.214,9.026-14.912,8.081-22.672
			c-1.417-11.637-7.473-22.986-15.812-31.131c-15.287-14.934-41.2-15.55-54.923,1.44c-9.143,11.318-12.417,26.832-11.5,41.108
			C63.411,138.631,73.414,138.671,73,132.229L73,132.229z"/>
	</g>
</g>
<g display="none">
	<g display="inline">
		<linearGradient id="SVGID_35_" gradientUnits="userSpaceOnUse" x1="610.8564" y1="93.0479" x2="701.46" y2="93.0479">
			<stop  offset="0.1675" style="stop-color:#58CC76"/>
			<stop  offset="0.5533" style="stop-color:#2EBF54"/>
			<stop  offset="0.8629" style="stop-color:#238F3F"/>
		</linearGradient>
		<path fill="url(#SVGID_35_)" d="M623.04,124.736c-6.46-12.799-9.504-30.05-1.34-42.793c4.22-6.586,12.058-9.55,19.528-10.267
			c11.836-1.136,22.17,4.694,30.207,12.96c1.852,1.905,14.113,18.792,6.671,19.228c-4.217,0.247-8.833-4.009-11.721-6.59
			c-3.748-3.349-6.974-7.235-8.428-12.116c-3.064-10.289,6.467-19.342,15.64-21.365c8.191-1.805,17.434,1.932,23.68,7.074
			c4.936,4.064,12.054-2.969,7.07-7.071c-16.264-13.39-40.296-14.66-52.923,4.193c-7.331,10.947-3.435,24.193,4.762,33.252
			c6.172,6.823,16.604,15.185,26.417,11.829c10.947-3.744,7.782-16.461,3.991-24.267c-5.07-10.44-15.032-19.001-25.503-23.689
			c-18.165-8.132-42.453-2.274-50.734,16.89c-6.61,15.296-3.227,33.364,4.048,47.779
			C617.312,135.541,625.938,130.477,623.04,124.736L623.04,124.736z"/>
	</g>
</g>
<g display="none">
	<g display="inline">
		<path fill="#F7941E" d="M182.061,29.239c4.592-4.826,11.599-9.62,18.647-8.471c10.92,1.78,10.954,15.757,7.042,23.419
			c-0.966,1.893-2.227,3.361-3.74,4.827c-0.498,0.474-1.054,0.863-1.67,1.166c0.451,0.217,0.903,0.434,1.354,0.65
			c-0.115-0.742-0.085-1.479,0.091-2.211c0.646-3.623,2.674-8.333,6.383-9.629c3.886-1.358,7.63,1.574,9.393,4.744
			c1.892,3.402,1.205,7.816,0.029,11.296c-2.071,6.126,7.589,8.733,9.643,2.658c4.905-14.51-4.785-32.174-21.722-28.342
			c-7.508,1.699-11.646,9.823-13.368,16.614c-1.912,7.54,3.014,16.979,11.858,13.464c7.476-2.972,11.82-11.46,13.699-18.789
			c2.245-8.757-0.517-18.029-6.789-24.422c-11.051-11.264-28.772-3.662-37.922,5.954C170.547,26.836,177.607,33.919,182.061,29.239
			L182.061,29.239z"/>
	</g>
</g>
<polygon display="none" fill="#E7F791" points="419.207,102.045 421.479,95.252 407.898,90.703 405.627,97.5 "/>
<path display="none" fill="#E7F791" d="M378.706,90.926c3.096-0.724,5.026-3.827,4.303-6.926c-0.727-3.1-3.832-5.022-6.928-4.298
	c-3.101,0.723-5.027,3.824-4.305,6.924C372.503,89.72,375.605,91.651,378.706,90.926z"/>
<polygon display="none" fill="#E7F791" points="584.645,145.197 586.916,138.404 573.336,133.854 571.064,140.652 "/>
<path display="none" fill="#33B5BD" d="M540.759,137.462c3.097-0.724,5.026-3.827,4.303-6.926c-0.727-3.1-3.832-5.022-6.928-4.298
	c-3.101,0.723-5.027,3.824-4.305,6.924C534.557,136.257,537.658,138.188,540.759,137.462z"/>
<polygon display="none" fill="#F7941E" points="595.601,10.724 590.637,5.56 580.306,15.479 585.273,20.645 "/>
<path display="none" fill="#F7941E" d="M566.958,41.442c0.796-3.079-1.058-6.229-4.14-7.025c-3.083-0.795-6.227,1.064-7.021,4.142
	c-0.799,3.082,1.055,6.228,4.137,7.026C563.012,46.376,566.162,44.525,566.958,41.442z"/>
<path display="none" fill="#F7941E" d="M566.958,164.139c0.796-3.079-1.058-6.229-4.14-7.025c-3.083-0.795-6.227,1.064-7.021,4.142
	c-0.799,3.082,1.055,6.228,4.137,7.026C563.012,169.074,566.162,167.222,566.958,164.139z"/>
<path display="none" fill="#F7941E" d="M498.949,190.443c0.796-3.079-1.058-6.229-4.14-7.025c-3.083-0.795-6.227,1.064-7.021,4.142
	c-0.799,3.082,1.055,6.228,4.137,7.026C495.003,195.377,498.153,193.526,498.949,190.443z"/>
<polygon display="none" fill="#E7F791" points="774.595,68.843 769.631,63.679 759.3,73.598 764.268,78.764 "/>
<path display="none" fill="#33B5BD" d="M745.952,99.561c0.796-3.079-1.058-6.229-4.14-7.025c-3.083-0.795-6.227,1.064-7.021,4.142
	c-0.799,3.082,1.055,6.228,4.137,7.026C742.006,104.496,745.156,102.644,745.952,99.561z"/>
<polygon display="none" fill="#E7F791" points="666.856,162.108 661.893,156.944 651.562,166.862 656.529,172.029 "/>
<path display="none" fill="#33B5BD" d="M634.829,196.21c0.796-3.079-1.058-6.229-4.14-7.025c-3.083-0.795-6.227,1.064-7.021,4.142
	c-0.799,3.082,1.055,6.228,4.137,7.026C630.883,201.145,634.033,199.293,634.829,196.21z"/>
<polygon display="none" fill="#E7F791" points="404.611,179.829 399.647,174.665 389.316,184.583 394.284,189.75 "/>
<path display="none" fill="#33B5BD" d="M375.968,210.547c0.796-3.079-1.058-6.229-4.14-7.025c-3.083-0.795-6.227,1.064-7.021,4.142
	c-0.799,3.082,1.055,6.228,4.137,7.026C372.022,215.481,375.172,213.63,375.968,210.547z"/>
<polygon display="none" fill="#33B5BD" points="182.295,50.932 177.331,45.768 167,55.686 171.968,60.853 "/>
<path display="none" fill="#33B5BD" d="M128.763,28.88c0.796-3.079-1.058-6.229-4.14-7.025c-3.083-0.795-6.227,1.064-7.021,4.142
	c-0.799,3.082,1.055,6.228,4.137,7.026C124.817,33.815,127.967,31.963,128.763,28.88z"/>
<polygon display="none" fill="#E7F791" points="275.877,167.268 270.913,162.104 260.582,172.022 265.55,177.188 "/>
<polygon display="none" fill="#E7F791" points="212.02,82.935 207.056,77.771 196.725,87.689 201.692,92.856 "/>
<polygon display="none" fill="#E7F791" points="62.717,139.217 57.752,134.053 47.421,143.971 52.389,149.138 "/>
<path display="none" fill="#E7F791" d="M247.234,197.985c0.796-3.079-1.058-6.229-4.14-7.025c-3.083-0.795-6.227,1.064-7.021,4.142
	c-0.799,3.082,1.055,6.228,4.137,7.026C243.288,202.92,246.438,201.068,247.234,197.985z"/>
<path display="none" fill="#E7F791" d="M128.763,187.737c0.796-3.079-1.058-6.229-4.14-7.025c-3.083-0.795-6.227,1.064-7.021,4.142
	c-0.799,3.082,1.055,6.228,4.137,7.026C124.817,192.672,127.967,190.82,128.763,187.737z"/>
<g display="none">
	<g display="inline">
		<path fill="#33B5BD" d="M259.418,81.238c11.019-9.812,27.495-17.323,42.188-11.9c7.842,2.895,12.301,10.929,14.635,18.442
			c3.487,11.229-1,23.177-7.31,32.476c-2.458,3.623-5.808,6.702-9.495,9.038c-4.126,2.613-6.075,1.161-5.761-3.567
			c0.542-8.165,7.668-19.26,15.401-22.025c9.037-3.231,18.344,2.98,22.334,10.837c3.765,7.413,2.536,17.234-0.803,24.533
			c-2.662,5.819,5.955,10.905,8.635,5.047c8.116-17.741,4.782-41.452-15.323-49.225c-11.139-4.307-22.692-0.961-30.25,8.149
			c-6.244,7.526-11.579,18.717-9.545,28.633c2.497,12.171,16.068,9.652,23.346,4.185c9.314-6.997,15.446-17.552,18.471-28.692
			c5.422-19.963-5.199-44.205-26.414-48.857c-16.934-3.713-34.796,4.826-47.181,15.854C247.522,78.463,254.62,85.511,259.418,81.238
			L259.418,81.238z"/>
	</g>
</g>
<g display="none">
	<g display="inline">
		<path fill="#F7941E" d="M528.43,107.221c-5.222-7.702-8.646-17.548-5.404-26.695c1.563-4.413,5.896-7.024,10.109-8.353
			c7.281-2.296,14.133,0.047,20.242,4.152c2.618,1.759,4.814,4.089,6.552,6.697c0.644,0.966,1.208,2.002,1.616,3.089
			c0.524,1.395,0.618,1.121-1.098,0.771c-5.299-1.079-11.317-6.176-12.657-11.384c-1.5-5.833,4.253-10.927,9.218-12.291
			c4.958-1.361,10.379,0.446,14.59,3.027c5.515,3.379,10.534-5.272,5.047-8.635c-7.261-4.449-16.208-6.178-24.397-3.389
			c-9.2,3.134-15.803,12.918-14.298,22.659c1.47,9.52,10.179,16.006,18.631,19.289c10.326,4.01,18.132-5.441,13.69-15
			c-8.684-18.688-34.65-26.438-50.752-12.644c-12.807,10.971-7.895,31.703,0.276,43.753
			C523.391,117.572,532.06,112.575,528.43,107.221L528.43,107.221z"/>
	</g>
</g>
<g display="none">
	<g display="inline">
		<path fill="#F5DE62" d="M449.21,135.509c4.617-4.312,11.356-8.148,17.904-6.861c9.818,1.929,9.653,14.627,6.072,21.56
			c-0.983,1.902-2.26,3.449-3.795,4.914c-0.523,0.51-1.106,0.939-1.75,1.288c-0.541,0.346,0.699,2.033,0.992,0.01
			c0.533-3.675,2.994-8.486,6.679-9.7c3.846-1.268,7.636,2.207,8.813,5.521c1.233,3.468,0.435,7.149-0.895,10.446
			c-2.413,5.985,7.264,8.56,9.643,2.658c5.692-14.123-3.613-31.5-20.22-28.269c-7.461,1.452-12.056,9.969-13.663,16.685
			c-1.879,7.853,4.551,15.846,12.713,11.774c14.99-7.479,18.14-29.162,7.354-41.23c-10.141-11.346-27.677-4.5-36.918,4.133
			C437.418,132.849,444.505,139.905,449.21,135.509L449.21,135.509z"/>
	</g>
</g>
<g display="none">
	<g display="inline">
		<path fill="#F5DE62" d="M30.424,222.307c-5.222-7.702-8.646-17.548-5.404-26.695c1.563-4.413,5.896-7.024,10.109-8.353
			c7.282-2.296,14.133,0.047,20.242,4.152c2.618,1.759,4.814,4.089,6.552,6.697c0.644,0.966,1.208,2.002,1.616,3.089
			c0.524,1.395,0.618,1.121-1.098,0.771c-5.298-1.079-11.316-6.176-12.656-11.384c-1.501-5.833,4.252-10.927,9.218-12.291
			c4.957-1.361,10.378,0.446,14.589,3.027c5.514,3.379,10.534-5.272,5.047-8.635c-7.261-4.449-16.208-6.178-24.397-3.389
			c-9.2,3.134-15.803,12.918-14.298,22.659c1.471,9.52,10.179,16.006,18.631,19.289c10.326,4.01,18.132-5.441,13.69-15
			c-8.683-18.688-34.651-26.438-50.752-12.644c-12.807,10.971-7.894,31.703,0.276,43.753
			C25.386,232.658,34.054,227.661,30.424,222.307L30.424,222.307z"/>
	</g>
</g>
<g display="none">
	<g display="inline">
		<path fill="#33B5BD" d="M676.845,136.105c7.702-5.222,17.549-8.646,26.695-5.404c4.413,1.564,7.024,5.896,8.353,10.109
			c2.297,7.282-0.046,14.133-4.151,20.242c-1.759,2.618-4.089,4.814-6.697,6.552c-0.966,0.644-2.002,1.208-3.089,1.616
			c-1.395,0.524-1.12,0.618-0.771-1.098c1.079-5.298,6.176-11.316,11.384-12.656c5.833-1.501,10.928,4.252,12.291,9.218
			c1.361,4.957-0.445,10.378-3.026,14.589c-3.379,5.514,5.272,10.534,8.635,5.047c4.449-7.261,6.178-16.208,3.389-24.397
			c-3.134-9.2-12.919-15.803-22.659-14.298c-9.52,1.471-16.007,10.179-19.289,18.631c-4.011,10.326,5.44,18.131,14.999,13.69
			c18.689-8.683,26.438-34.651,12.645-50.752c-10.972-12.807-31.703-7.894-43.754,0.276
			C666.494,131.066,671.491,139.735,676.845,136.105L676.845,136.105z"/>
	</g>
</g>
<g display="none">
	<g display="inline">
		<path fill="#D4D8D8" d="M397.974,773.299h0.699v-0.88c0-0.92,0.115-1.646,0.347-2.189c0.231-0.54,0.628-0.933,1.182-1.179
			s1.315-0.369,2.28-0.369c1.715,0,2.566,0.415,2.566,1.259c0,0.269-0.09,0.502-0.27,0.694c-0.177,0.192-0.39,0.29-0.63,0.29
			c-0.113,0-0.315-0.021-0.596-0.066c-0.271-0.039-0.512-0.064-0.707-0.064c-0.528,0-0.866,0.159-1.021,0.469
			c-0.146,0.311-0.22,0.757-0.22,1.339v0.697h0.712c1.12,0,1.677,0.335,1.677,1.012c0,0.475-0.146,0.779-0.446,0.91
			c-0.295,0.129-0.705,0.192-1.23,0.192h-0.712v7.765c0,0.577-0.138,1.018-0.418,1.32c-0.273,0.308-0.628,0.459-1.067,0.459
			c-0.414,0-0.759-0.151-1.037-0.459c-0.276-0.303-0.412-0.743-0.412-1.32v-7.765h-0.806c-0.438,0-0.773-0.095-1.01-0.295
			c-0.236-0.194-0.354-0.451-0.354-0.767C396.502,773.647,396.992,773.299,397.974,773.299z"/>
		<path fill="#D4D8D8" d="M407.565,780.728v2.45c0,0.593-0.146,1.038-0.423,1.333c-0.277,0.3-0.631,0.446-1.06,0.446
			c-0.428,0-0.776-0.148-1.043-0.454c-0.271-0.297-0.41-0.74-0.41-1.325v-8.162c0-1.317,0.475-1.977,1.425-1.977
			c0.492,0,0.842,0.154,1.057,0.462c0.215,0.311,0.333,0.762,0.356,1.366c0.349-0.604,0.707-1.056,1.074-1.366
			c0.371-0.308,0.861-0.462,1.477-0.462c0.62,0,1.215,0.154,1.794,0.462c0.58,0.311,0.872,0.718,0.872,1.226
			c0,0.356-0.126,0.656-0.372,0.884c-0.248,0.236-0.51,0.352-0.797,0.352c-0.113,0-0.372-0.069-0.779-0.202
			c-0.416-0.129-0.779-0.195-1.092-0.195c-0.429,0-0.779,0.115-1.052,0.336c-0.271,0.23-0.484,0.562-0.636,1.002
			c-0.148,0.446-0.251,0.977-0.308,1.587C407.591,779.103,407.565,779.848,407.565,780.728z"/>
		<path fill="#D4D8D8" d="M421.036,779.72h-5.731c0.007,0.664,0.138,1.254,0.402,1.762c0.261,0.505,0.607,0.887,1.04,1.148
			c0.437,0.256,0.913,0.384,1.434,0.384c0.354,0,0.671-0.038,0.961-0.125c0.29-0.08,0.571-0.211,0.844-0.385
			c0.271-0.175,0.521-0.361,0.751-0.564c0.229-0.199,0.525-0.472,0.892-0.814c0.151-0.129,0.364-0.195,0.644-0.195
			c0.3,0,0.544,0.082,0.73,0.249c0.188,0.166,0.279,0.397,0.279,0.697c0,0.267-0.102,0.574-0.307,0.928
			c-0.211,0.359-0.523,0.694-0.943,1.022c-0.421,0.323-0.946,0.598-1.58,0.808c-0.633,0.216-1.36,0.323-2.184,0.323
			c-1.884,0-3.346-0.533-4.389-1.607c-1.046-1.076-1.571-2.532-1.571-4.37c0-0.867,0.131-1.672,0.39-2.413
			c0.256-0.743,0.633-1.374,1.128-1.907c0.495-0.53,1.1-0.936,1.822-1.217c0.724-0.282,1.522-0.424,2.405-0.424
			c1.146,0,2.127,0.241,2.945,0.729c0.82,0.479,1.438,1.104,1.843,1.871c0.407,0.77,0.612,1.546,0.612,2.343
			c0,0.733-0.213,1.21-0.636,1.431C422.397,779.609,421.803,779.72,421.036,779.72z M415.305,778.054h5.313
			c-0.071-1-0.341-1.751-0.81-2.246c-0.47-0.499-1.085-0.745-1.854-0.745c-0.729,0-1.331,0.248-1.797,0.756
			C415.688,776.323,415.404,777.066,415.305,778.054z"/>
		<path fill="#D4D8D8" d="M433.226,779.72h-5.732c0.006,0.664,0.142,1.254,0.403,1.762c0.259,0.505,0.607,0.887,1.038,1.148
			c0.433,0.256,0.912,0.384,1.436,0.384c0.349,0,0.671-0.038,0.956-0.125c0.295-0.08,0.571-0.211,0.849-0.385
			c0.271-0.175,0.521-0.361,0.751-0.564c0.226-0.199,0.522-0.472,0.89-0.814c0.151-0.129,0.366-0.195,0.644-0.195
			c0.302,0,0.546,0.082,0.732,0.249c0.185,0.166,0.274,0.397,0.274,0.697c0,0.267-0.1,0.574-0.312,0.928
			c-0.2,0.359-0.513,0.694-0.938,1.022c-0.415,0.323-0.945,0.598-1.576,0.808c-0.631,0.216-1.361,0.323-2.187,0.323
			c-1.88,0-3.343-0.533-4.389-1.607c-1.046-1.076-1.569-2.532-1.569-4.37c0-0.867,0.131-1.672,0.39-2.413
			c0.259-0.743,0.634-1.374,1.126-1.907c0.494-0.53,1.102-0.936,1.824-1.217c0.724-0.282,1.525-0.424,2.405-0.424
			c1.144,0,2.125,0.241,2.953,0.729c0.815,0.479,1.431,1.104,1.835,1.871c0.405,0.77,0.613,1.546,0.613,2.343
			c0,0.733-0.213,1.21-0.634,1.431C434.584,779.609,433.989,779.72,433.226,779.72z M427.493,778.054h5.314
			c-0.071-1-0.346-1.751-0.81-2.246c-0.473-0.499-1.088-0.745-1.856-0.745c-0.728,0-1.328,0.248-1.797,0.756
			C427.875,776.323,427.591,777.066,427.493,778.054z"/>
		<path fill="#D4D8D8" d="M439.645,774.688v0.352c0.549-0.68,1.125-1.18,1.723-1.497c0.587-0.32,1.264-0.482,2.015-0.482
			c0.899,0,1.733,0.236,2.492,0.7c0.759,0.467,1.355,1.146,1.797,2.041c0.44,0.896,0.664,1.953,0.664,3.179
			c0,0.899-0.129,1.729-0.382,2.486c-0.254,0.756-0.605,1.387-1.047,1.899c-0.445,0.508-0.971,0.905-1.573,1.182
			c-0.61,0.271-1.257,0.41-1.951,0.41c-0.836,0-1.54-0.169-2.109-0.505c-0.569-0.331-1.11-0.831-1.628-1.477v4.398
			c0,1.285-0.472,1.934-1.405,1.934c-0.554,0-0.915-0.167-1.097-0.498c-0.175-0.338-0.267-0.817-0.267-1.458v-12.648
			c0-0.559,0.12-0.972,0.361-1.251c0.246-0.271,0.582-0.413,1.002-0.413c0.416,0,0.754,0.142,1.013,0.424
			C439.517,773.747,439.645,774.152,439.645,774.688z M445.389,778.945c0-0.773-0.117-1.438-0.354-1.991
			c-0.235-0.557-0.563-0.979-0.979-1.274c-0.418-0.297-0.885-0.448-1.395-0.448c-0.806,0-1.49,0.32-2.044,0.953
			c-0.556,0.642-0.833,1.577-0.833,2.815c0,1.163,0.274,2.073,0.828,2.722c0.551,0.646,1.23,0.97,2.049,0.97
			c0.486,0,0.94-0.142,1.354-0.421c0.417-0.284,0.751-0.707,0.999-1.274C445.266,780.43,445.389,779.745,445.389,778.945z"/>
		<path fill="#D4D8D8" d="M451.285,771.676c-0.41,0-0.756-0.128-1.046-0.377c-0.29-0.254-0.438-0.603-0.438-1.059
			c0-0.415,0.151-0.759,0.449-1.028c0.297-0.267,0.641-0.402,1.035-0.402c0.382,0,0.715,0.121,1.01,0.361
			c0.293,0.246,0.441,0.603,0.441,1.069c0,0.451-0.144,0.803-0.431,1.056C452.019,771.548,451.68,771.676,451.285,771.676z
			 M452.736,774.703v8.475c0,0.585-0.142,1.028-0.421,1.325c-0.279,0.306-0.633,0.454-1.063,0.454s-0.774-0.151-1.046-0.459
			c-0.267-0.312-0.405-0.751-0.405-1.32v-8.39c0-0.58,0.139-1.016,0.405-1.305c0.271-0.301,0.615-0.444,1.046-0.444
			s0.784,0.144,1.063,0.444C452.595,773.772,452.736,774.186,452.736,774.703z"/>
		<path fill="#D4D8D8" d="M462.183,783.619l-2.584-4.256l-1.59,1.503v2.332c0,0.564-0.151,0.997-0.448,1.3
			c-0.292,0.308-0.639,0.459-1.025,0.459c-0.451,0-0.805-0.148-1.062-0.454c-0.259-0.297-0.39-0.74-0.39-1.325v-12.502
			c0-0.646,0.129-1.144,0.377-1.484c0.251-0.343,0.613-0.51,1.074-0.51c0.454,0,0.808,0.153,1.071,0.464
			c0.27,0.305,0.402,0.762,0.402,1.358v7.111l3.294-3.461c0.41-0.425,0.719-0.723,0.937-0.879c0.212-0.156,0.474-0.236,0.779-0.236
			c0.369,0,0.671,0.118,0.92,0.349c0.238,0.233,0.361,0.526,0.361,0.875c0,0.428-0.397,1.005-1.192,1.72l-1.556,1.425l3.007,4.728
			c0.218,0.354,0.38,0.615,0.477,0.797c0.098,0.183,0.146,0.361,0.146,0.523c0,0.467-0.128,0.83-0.382,1.103
			c-0.254,0.267-0.592,0.399-1.002,0.399c-0.359,0-0.636-0.092-0.831-0.29C462.774,784.473,462.511,784.121,462.183,783.619z"/>
		<path fill="#D4D8D8" d="M468.55,784.957c-0.443,0-0.825-0.144-1.148-0.431c-0.317-0.282-0.484-0.685-0.484-1.202
			c0-0.436,0.159-0.812,0.464-1.125c0.311-0.315,0.689-0.472,1.141-0.472c0.449,0,0.831,0.156,1.154,0.464
			c0.315,0.312,0.479,0.691,0.479,1.133c0,0.51-0.164,0.912-0.479,1.197C469.353,784.813,468.979,784.957,468.55,784.957z"/>
		<path fill="#D4D8D8" d="M483.123,781.33c0,0.361-0.109,0.753-0.328,1.169c-0.218,0.415-0.551,0.81-0.999,1.187
			c-0.446,0.374-1.008,0.68-1.692,0.907c-0.679,0.229-1.445,0.347-2.294,0.347c-1.812,0-3.228-0.531-4.245-1.585
			c-1.013-1.056-1.521-2.474-1.521-4.247c0-1.208,0.231-2.267,0.697-3.191c0.462-0.921,1.136-1.636,2.018-2.141
			c0.88-0.505,1.936-0.757,3.153-0.757c0.762,0,1.459,0.11,2.094,0.334c0.634,0.22,1.167,0.51,1.61,0.855
			c0.436,0.356,0.774,0.729,1.005,1.123c0.236,0.397,0.352,0.77,0.352,1.115c0,0.349-0.131,0.646-0.393,0.887
			c-0.262,0.246-0.579,0.369-0.948,0.369c-0.246,0-0.449-0.063-0.607-0.187c-0.164-0.129-0.344-0.328-0.541-0.613
			c-0.359-0.541-0.733-0.951-1.126-1.22c-0.39-0.274-0.884-0.41-1.486-0.41c-0.861,0-1.562,0.338-2.092,1.015
			c-0.531,0.675-0.795,1.605-0.795,2.774c0,0.551,0.069,1.061,0.205,1.522c0.134,0.459,0.328,0.854,0.59,1.179
			c0.259,0.326,0.566,0.572,0.931,0.741c0.369,0.172,0.769,0.254,1.202,0.254c0.592,0,1.092-0.136,1.51-0.408
			c0.426-0.271,0.795-0.687,1.115-1.245c0.18-0.328,0.371-0.585,0.576-0.771c0.208-0.185,0.465-0.282,0.765-0.282
			c0.358,0,0.656,0.139,0.89,0.41C483.006,780.729,483.123,781.024,483.123,781.33z"/>
		<path fill="#D4D8D8" d="M495.771,779c0,0.871-0.139,1.679-0.404,2.417c-0.277,0.738-0.67,1.371-1.188,1.896
			c-0.51,0.531-1.131,0.937-1.843,1.221c-0.721,0.279-1.522,0.423-2.418,0.423c-0.887,0-1.684-0.144-2.394-0.431
			c-0.705-0.282-1.326-0.694-1.838-1.223c-0.521-0.538-0.916-1.169-1.188-1.895c-0.262-0.728-0.399-1.53-0.399-2.409
			c0-0.888,0.141-1.7,0.407-2.438c0.271-0.738,0.664-1.369,1.174-1.889c0.508-0.523,1.123-0.926,1.844-1.21
			c0.725-0.282,1.522-0.424,2.394-0.424c0.89,0,1.694,0.142,2.418,0.431c0.72,0.285,1.338,0.695,1.855,1.221
			c0.519,0.533,0.91,1.164,1.177,1.89C495.636,777.315,495.771,778.118,495.771,779z M492.829,779c0-1.195-0.265-2.123-0.79-2.792
			c-0.522-0.669-1.23-1-2.12-1c-0.574,0-1.076,0.148-1.515,0.446c-0.436,0.295-0.77,0.733-1.008,1.315
			c-0.235,0.579-0.355,1.256-0.355,2.03c0,0.769,0.115,1.433,0.348,2.004c0.236,0.577,0.567,1.016,1.003,1.318
			c0.436,0.302,0.943,0.456,1.527,0.456c0.89,0,1.598-0.336,2.12-1.005C492.564,781.104,492.829,780.179,492.829,779z"/>
		<path fill="#D4D8D8" d="M506.948,779.218v3.894c0,0.618-0.136,1.074-0.42,1.387c-0.279,0.308-0.646,0.459-1.105,0.459
			c-0.44,0-0.805-0.151-1.073-0.459c-0.277-0.312-0.421-0.769-0.421-1.387v-4.668c0-0.738-0.023-1.312-0.069-1.723
			c-0.054-0.402-0.189-0.741-0.41-1c-0.221-0.264-0.574-0.395-1.054-0.395c-0.958,0-1.587,0.328-1.895,0.992
			c-0.302,0.653-0.456,1.6-0.456,2.835v3.958c0,0.607-0.139,1.069-0.412,1.382c-0.277,0.311-0.642,0.464-1.09,0.464
			c-0.446,0-0.808-0.153-1.092-0.464c-0.282-0.312-0.426-0.774-0.426-1.382v-8.385c0-0.552,0.128-0.972,0.382-1.257
			c0.257-0.289,0.592-0.431,1.005-0.431c0.402,0,0.735,0.139,1.005,0.403c0.27,0.269,0.402,0.638,0.402,1.112v0.276
			c0.513-0.604,1.054-1.054,1.633-1.335c0.582-0.293,1.223-0.437,1.933-0.437c0.736,0,1.372,0.149,1.9,0.441
			c0.53,0.295,0.964,0.738,1.31,1.33c0.495-0.597,1.025-1.043,1.589-1.335c0.569-0.29,1.192-0.437,1.88-0.437
			c0.802,0,1.494,0.162,2.073,0.475c0.58,0.315,1.01,0.77,1.295,1.351c0.254,0.533,0.377,1.367,0.377,2.505v5.722
			c0,0.618-0.142,1.074-0.416,1.387c-0.279,0.308-0.648,0.459-1.107,0.459c-0.443,0-0.807-0.153-1.089-0.464
			c-0.284-0.312-0.423-0.774-0.423-1.382v-4.93c0-0.631-0.028-1.133-0.082-1.513c-0.052-0.379-0.2-0.699-0.434-0.956
			c-0.238-0.256-0.598-0.387-1.076-0.387c-0.385,0-0.752,0.118-1.1,0.346c-0.347,0.226-0.615,0.536-0.813,0.921
			C507.059,777.085,506.948,777.961,506.948,779.218z"/>
		<g>
			<path fill-rule="evenodd" clip-rule="evenodd" fill="#D4D8D8" d="M377.679,785.982c0,0-1.602-0.254-3.161-1.961
				c-1.573-1.723-1.837-3.545-1.837-3.545s1.995,0.469,3.426,0.628c2.525,0.284,4.796,0.125,5.868,0.01
				c2.321-0.256,3.556-0.685,4.055-0.808c2.964-0.71,5.814-2.63,5.814-2.63s0.358,2.228-1.315,4.696
				c-0.652,0.967-1.953,2.074-3.45,2.838C381.948,787.397,377.679,785.982,377.679,785.982z"/>
			<path fill-rule="evenodd" clip-rule="evenodd" fill="#D4D8D8" d="M389.796,773.329c-0.554-0.666-2.388-3.814-6.104-4.269
				c-0.951-0.115-5.974,0.08-8.987,2.871c-0.3,0.28-1.83,1.626-2.338,4.128c-0.395,1.933,0.252,4.111,0.252,4.111
				s3.343,0.695,5.862,0.631c3.994-0.1,6.003-0.454,8.09-1.084c3.076-0.934,5.253-2.492,5.253-2.492S390.35,774.001,389.796,773.329
				z M378.27,778.118c-1.689,0.109-3.143-1.164-3.248-2.846c-0.105-1.677,1.181-3.13,2.87-3.232c1.689-0.115,3.146,1.163,3.247,2.84
				C381.246,776.562,379.959,778.013,378.27,778.118z M386.897,775.949c-1.064,0.063-1.979-0.736-2.044-1.795
				c-0.066-1.054,0.745-1.966,1.806-2.035s1.98,0.738,2.044,1.792C388.771,774.967,387.958,775.883,386.897,775.949z"/>
			<path fill-rule="evenodd" clip-rule="evenodd" fill="#D4D8D8" d="M388.349,771.152l0.97-1.163c0,0,1.342,0.658,2.204,1.899
				c0.859,1.238,1.417,2.371,1.417,2.371l-1.601,0.974c0,0-0.498-1.194-1.242-2.153
				C389.355,772.124,388.349,771.152,388.349,771.152z"/>
			<path fill-rule="evenodd" clip-rule="evenodd" fill="#D4D8D8" d="M391.397,771.963c0.25-0.151,0.674-0.175,0.648-0.53
				c-0.02-0.352-0.258-1.052,0.441-1.29c0.704-0.235,0.308,0.208,0.065,0.516c-0.241,0.308-0.163,0.497-0.134,0.951
				c0.028,0.445-0.289,0.597-0.764,0.817C391.179,772.655,391.146,772.111,391.397,771.963z"/>
			<path fill-rule="evenodd" clip-rule="evenodd" fill="#D4D8D8" d="M373.594,772.678c0,0-1.124,1.305-1.409,2.484
				c-0.284,1.185-0.227,2.609-0.227,2.609l-1.665-0.574c0,0-0.095-1.636,0.661-2.958c0.844-1.467,1.92-2.125,1.92-2.125
				L373.594,772.678z"/>
			<path fill-rule="evenodd" clip-rule="evenodd" fill="#D4D8D8" d="M371.146,774.162c-0.27-0.177-0.296-0.597-0.509-0.871
				c-0.215-0.282-0.268-0.113-0.756-0.113c-0.49-0.002-0.502-0.23-0.641-0.349c-0.138-0.123-0.204,0.367-0.204,0.367
				s0.09,0.415,0.614,0.445c0.521,0.033,0.506-0.223,0.732,0.246c0.224,0.472,0.669,0.831,0.669,0.831
				S371.42,774.339,371.146,774.162z"/>
			<path fill-rule="evenodd" clip-rule="evenodd" fill="#D4D8D8" d="M379.976,767.967c2.73-0.685,4.438,0.104,4.438,0.104
				l-0.146,0.784c0,0-1.995-0.133-3.576,0.103c-1.582,0.226-2.299,0.726-2.299,0.726l-0.344-0.784
				C378.048,768.899,378.795,768.261,379.976,767.967z"/>
			<path fill-rule="evenodd" clip-rule="evenodd" fill="#D4D8D8" d="M380.795,766.844l0.382-0.139l0.507,1.361l-0.38,0.141
				L380.795,766.844z"/>
			<path fill-rule="evenodd" clip-rule="evenodd" fill="#D4D8D8" d="M392.815,769.374c0.386-0.023,0.716,0.269,0.741,0.656
				c0.024,0.382-0.269,0.71-0.655,0.735c-0.384,0.025-0.715-0.27-0.738-0.651C392.138,769.73,392.429,769.404,392.815,769.374z"/>
			<path fill-rule="evenodd" clip-rule="evenodd" fill="#D4D8D8" d="M368.848,772.012c0.384-0.023,0.716,0.267,0.739,0.651
				c0.023,0.382-0.268,0.707-0.655,0.735c-0.384,0.025-0.715-0.267-0.741-0.648C368.168,772.365,368.463,772.04,368.848,772.012z"/>
			<path fill-rule="evenodd" clip-rule="evenodd" fill="#D4D8D8" d="M381.127,765.108c0.614-0.039,1.143,0.42,1.18,1.033
				c0.039,0.607-0.429,1.133-1.043,1.174c-0.614,0.041-1.14-0.421-1.179-1.036C380.046,765.672,380.513,765.144,381.127,765.108z"/>
		</g>
	</g>
	<g display="inline">
		<path fill="#D4D8D8" d="M293.938,783.345c0,0.685-0.429,1.138-1.028,1.138c-0.565,0-0.895-0.31-1.021-0.855
			c-0.386,0.628-1.179,0.938-1.876,0.938c-2.065,0-3.372-1.914-3.372-3.85c0-1.997,1.096-4.056,3.3-4.056
			c0.71,0,1.407,0.243,1.948,0.713v-2.792c0-0.68,0.424-1.133,1.021-1.133c0.599,0,1.028,0.453,1.028,1.133V783.345z
			 M290.281,778.538c-1.066,0-1.593,1.12-1.593,2.089c0,0.954,0.527,2.064,1.593,2.064c1.122,0,1.607-1.139,1.607-2.136
			S291.375,778.538,290.281,778.538z"/>
		<path fill="#D4D8D8" d="M296.75,781.294c0.146,1.01,0.981,1.481,1.938,1.481c1.051,0,1.776-0.825,2.317-0.825
			c0.441,0,0.837,0.44,0.837,0.885c0,0.882-1.819,1.729-3.34,1.729c-2.306,0-3.841-1.676-3.841-3.938
			c0-2.076,1.508-3.968,3.669-3.968c2.218,0,3.685,2.02,3.685,3.728c0,0.609-0.271,0.907-0.896,0.907H296.75z M299.967,779.93
			c-0.114-0.896-0.682-1.561-1.637-1.561c-0.91,0-1.522,0.692-1.62,1.561H299.967z"/>
		<path fill="#D4D8D8" d="M307.05,779.048c-0.384,0-1.167-0.597-1.835-0.597c-0.369,0-0.699,0.172-0.699,0.569
			c0,0.953,3.557,0.812,3.557,3.145c0,1.364-1.151,2.399-2.916,2.399c-1.152,0-2.858-0.65-2.858-1.573
			c0-0.315,0.313-0.91,0.882-0.91c0.796,0,1.152,0.694,2.119,0.694c0.625,0,0.812-0.2,0.812-0.584c0-0.938-3.556-0.795-3.556-3.144
			c0-1.42,1.152-2.389,2.772-2.389c1.01,0,2.561,0.472,2.561,1.481C307.888,778.607,307.532,779.048,307.05,779.048z"/>
		<path fill="#D4D8D8" d="M310.946,774.796c0,0.643-0.511,1.182-1.153,1.182c-0.611,0-1.151-0.557-1.151-1.182
			c0-0.582,0.54-1.121,1.151-1.121C310.405,773.675,310.946,774.198,310.946,774.796z M308.77,777.885
			c0-0.685,0.425-1.139,1.023-1.139c0.597,0,1.025,0.454,1.025,1.139v5.46c0,0.685-0.428,1.138-1.025,1.138
			c-0.598,0-1.023-0.453-1.023-1.138V777.885z"/>
		<path fill="#D4D8D8" d="M318.953,783.801c0,2.459-1.607,3.699-3.941,3.699c-0.837,0-3.228-0.415-3.228-1.538
			c0-0.385,0.425-0.897,0.825-0.897c0.655,0,1.38,0.639,2.56,0.639c0.997,0,1.735-0.577,1.735-1.62v-0.482h-0.03
			c-0.424,0.626-1.123,0.964-2.06,0.964c-2.148,0-3.161-1.889-3.161-3.922c0-2.063,1.309-3.983,3.372-3.983
			c0.699,0,1.493,0.312,1.878,0.936c0.128-0.538,0.455-0.849,1.024-0.849c0.597,0,1.024,0.454,1.024,1.139V783.801z
			 M315.296,778.538c-1.065,0-1.59,1.11-1.59,2.063c0,1.092,0.525,2.09,1.59,2.09c1.096,0,1.609-1.023,1.609-2.025
			C316.905,779.677,316.419,778.538,315.296,778.538z"/>
		<path fill="#D4D8D8" d="M320.119,777.885c0-0.685,0.425-1.139,1.022-1.139c0.528,0,0.869,0.282,0.94,0.757
			c0.401-0.56,1.01-0.844,1.978-0.844c1.607,0,2.802,1.025,2.802,2.758v3.928c0,0.685-0.424,1.138-1.023,1.138
			c-0.596,0-1.025-0.453-1.025-1.138v-3.571c0-0.951-0.597-1.404-1.336-1.404c-0.838,0-1.308,0.61-1.308,1.404v3.571
			c0,0.685-0.429,1.138-1.027,1.138c-0.597,0-1.022-0.453-1.022-1.138V777.885z"/>
		<path fill="#D4D8D8" d="M329.676,781.294c0.143,1.01,0.982,1.481,1.934,1.481c1.054,0,1.778-0.825,2.317-0.825
			c0.441,0,0.842,0.44,0.842,0.885c0,0.882-1.823,1.729-3.344,1.729c-2.307,0-3.841-1.676-3.841-3.938
			c0-2.076,1.509-3.968,3.671-3.968c2.219,0,3.683,2.02,3.683,3.728c0,0.609-0.269,0.907-0.895,0.907H329.676z M332.891,779.93
			c-0.114-0.896-0.683-1.561-1.636-1.561c-0.911,0-1.524,0.692-1.621,1.561H332.891z"/>
		<path fill="#D4D8D8" d="M342.662,783.345c0,0.685-0.427,1.138-1.025,1.138c-0.568,0-0.895-0.31-1.023-0.855
			c-0.384,0.628-1.18,0.938-1.877,0.938c-2.062,0-3.37-1.914-3.37-3.85c0-1.997,1.094-4.056,3.3-4.056
			c0.709,0,1.406,0.243,1.947,0.713v-2.792c0-0.68,0.426-1.133,1.023-1.133c0.599,0,1.025,0.453,1.025,1.133V783.345z
			 M339.007,778.538c-1.067,0-1.593,1.12-1.593,2.089c0,0.954,0.526,2.064,1.593,2.064c1.122,0,1.606-1.139,1.606-2.136
			S340.102,778.538,339.007,778.538z"/>
		<path fill="#D4D8D8" d="M347.637,774.58c0-0.68,0.43-1.133,1.028-1.133c0.596,0,1.021,0.453,1.021,1.133v2.792
			c0.542-0.47,1.238-0.713,1.948-0.713c2.206,0,3.3,2.059,3.3,4.056c0,1.936-1.307,3.85-3.372,3.85c-0.696,0-1.492-0.31-1.876-0.938
			c-0.127,0.546-0.454,0.855-1.021,0.855c-0.599,0-1.028-0.453-1.028-1.138V774.58z M351.294,782.691
			c1.066,0,1.593-1.11,1.593-2.064c0-0.969-0.527-2.089-1.593-2.089c-1.094,0-1.607,1.021-1.607,2.018
			S350.173,782.691,351.294,782.691z"/>
		<path fill="#D4D8D8" d="M355.292,778.151c-0.058-0.154-0.102-0.315-0.102-0.523c0-0.515,0.541-0.882,0.967-0.882
			c0.497,0,0.855,0.271,1.026,0.723l1.406,3.858l1.509-3.858c0.169-0.451,0.525-0.723,1.022-0.723c0.43,0,0.968,0.367,0.968,0.882
			c0,0.208-0.029,0.369-0.097,0.523l-3.429,8.536c-0.172,0.426-0.486,0.812-0.968,0.812c-0.696,0-1.068-0.443-1.068-0.882
			c0-0.202,0.058-0.415,0.127-0.6l0.898-2.218L355.292,778.151z"/>
	</g>
</g>
</svg>
