<?xml version="1.0" encoding="utf-8"?>
<!-- Generator: Adobe Illustrator 16.0.0, SVG Export Plug-In . SVG Version: 6.00 Build 0)  -->
<!DOCTYPE svg PUBLIC "-//W3C//DTD SVG 1.1//EN" "http://www.w3.org/Graphics/SVG/1.1/DTD/svg11.dtd">
<svg version="1.1" id="Layer_1" xmlns="http://www.w3.org/2000/svg" xmlns:xlink="http://www.w3.org/1999/xlink" x="0px" y="0px"
	 width="300px" height="300px" viewBox="0 0 300 300" enable-background="new 0 0 300 300" xml:space="preserve">
<g>
	<g opacity="0.75">
		<path fill="#010101" d="M86.256,268.068c-1.412-0.994,1.564-5.227,3.025-6.309c5.659-3.053,18.691,5.402,15.193,11.383
			l0.331-0.475c4.755,1.232,15.118,1.486,16.897,6.953c3.472,8.064-8.161,7.619-12.117,6.244
			c6.384,12.92-19.236,10.379-18.843,0.814c-1.422,6.027-11.212,1.959-14.038-0.027c-2.35-1.65-6.775-3.355-6.203-7.168
			c0.571-3.814,4.576-4.512,7.4-2.531c-3.155-1.514-10.163-8.543-6.246-12.113c3.116-3.436,10.503,1.051,13.987,2.094"/>
		<path fill="#010101" d="M86.795,267.752c-1.599-2.441,3.403-5.824,4.907-6c1.838-0.215,3.828,0.529,5.48,1.23
			c3.447,1.461,8.758,5.529,6.753,9.844c-0.34,0.732,0.615,1.295,1.079,0.631c0.265-0.379,4.897,0.803,5.724,0.949
			c3.147,0.559,6.437,1.285,8.983,3.33c4.162,3.342,1.234,7.645-2.986,8.205c-2.303,0.307-4.777,0.004-6.984-0.68
			c-0.573-0.178-0.915,0.453-0.706,0.918c5.045,11.193-17.491,9.881-17.678,0.5c-0.015-0.725-1.002-0.826-1.228-0.166
			c-1.661,4.861-8.183,2.129-11.198,0.709c-0.979-0.461-1.869-1.074-2.772-1.664c-0.647-0.391-1.291-0.787-1.929-1.191
			c-3.77-2.352-0.798-9.246,3.347-6.873c0.21-0.361,0.42-0.721,0.631-1.08c-2.866-1.58-9.492-7.154-6.119-11.133
			c2.844-3.355,10.264,1.193,13.379,2.256c0.765,0.26,1.09-0.947,0.332-1.205c-3.376-1.152-12.806-6.643-15.334-1.051
			c-2.196,4.857,3.215,10.064,7.112,12.213c0.706,0.389,1.331-0.68,0.631-1.08c-2.1-1.203-5.892-2.018-7.417,0.67
			c-2.036,3.584-0.268,6.227,2.808,8.363c4.171,2.898,15.106,9.096,17.735,1.398c-0.409-0.055-0.818-0.109-1.228-0.166
			c0.226,11.303,26.042,12.256,20.007-1.131c-0.235,0.307-0.47,0.613-0.706,0.918c3.381,1.047,13.871,2.049,13.543-4.002
			c-0.487-8.996-11.418-8.857-17.992-10.398c-0.292-0.068-0.539,0.047-0.706,0.287c-0.11,0.158-0.221,0.314-0.331,0.473
			c0.36,0.211,0.719,0.422,1.079,0.631c2.767-5.953-4.591-10.727-9.327-12.381c-2.418-0.846-5.458-0.996-7.456,0.781
			c-1.523,1.357-3.859,4.475-2.516,6.525C86.156,269.055,87.239,268.43,86.795,267.752L86.795,267.752z"/>
		<path fill="#010101" d="M125.873,223.832c-5.327-1.604-0.527-9.285,3.207-10.654c7.919-4.258,17.124,1,18.108,8.766
			c9.29-0.525,30.146-0.895,30.062,13.189c-0.16,11.57-17.062,9.809-24.899,8.279c14.754,22.695-44.245,25.697-39.128,3.17
			c0.76,0.23,0.993-0.531,1.75-0.299c-6.316-1.072-21.161-1.385-18.183-11.281c1.527-7.836,12.184-4.633,16.217-4.252l0,0
			c-11.566-8.459,6.787-17.045,12.564-8.668"/>
		<path fill="#010101" d="M126.188,223.293c-4.013-1.711-1.165-5.67,0.331-7.467c1.823-2.188,4.934-3.18,7.644-3.512
			c6.108-0.752,11.368,4.09,12.422,9.795c0.048,0.26,0.345,0.473,0.603,0.459c8.833-0.477,22.658-1.295,28.124,7.234
			c4.179,6.518-0.935,12.402-7.296,13.695c-5.016,1.02-10.537,0.248-15.499-0.688c-0.509-0.096-1.018,0.416-0.706,0.918
			c7.265,11.682-6.104,17.016-15.798,17.625c-5.307,0.334-10.882-0.422-15.706-2.723c-2.159-1.031-4.061-2.543-5.396-4.535
			c-1.207-1.801-2.722-6.705,0.228-7.211c0.596-0.102,0.603-1.109,0-1.205c-5.443-0.861-13.944-0.648-17.443-5.701
			c-3.605-5.207,2.775-9.523,7.278-9.568c2.7-0.027,5.364,0.652,8.034,0.965c0.525,0.062,0.853-0.738,0.442-1.066
			c-9.736-7.756,5.772-15.289,11.68-7.783c0.498,0.633,1.376-0.26,0.884-0.885c-6.921-8.795-24.516,0.734-13.448,9.553
			c0.147-0.357,0.294-0.713,0.442-1.068c-7.292-0.855-17.332-2.699-17.211,7.836c0.091,7.957,13.737,8.088,19.011,8.924
			c0-0.4,0-0.803,0-1.205c-0.583,0.1-1.167,0.199-1.75,0.301c-0.198,0.033-0.398,0.242-0.437,0.436
			c-4.989,24.971,54.757,19.979,40.27-3.318c-0.235,0.305-0.471,0.611-0.705,0.918c7.513,1.416,20.232,3.359,24.763-4.725
			c5.475-9.771-6.623-16.15-14.134-17.463c-4.888-0.854-9.932-0.789-14.869-0.551c0.065-0.004-2.908-5.584-3.407-6.162
			c-1.665-1.928-4.104-3.029-6.491-3.723c-4.707-1.365-10.046,0.711-13.083,4.357c-2.294,2.754-3.261,6.979,0.594,8.623
			C126.29,224.686,126.927,223.607,126.188,223.293L126.188,223.293z"/>
		<path fill="#010101" d="M45.676,143.507c-4.084-5.105-19.402-4.085-26.549-9.19c-21.441-13.275-5.105-33.697,15.315-30.632l0,0
			l0,0c-6.126-10.212-10.211-22.465-4.083-33.697c8.169-15.316,25.528-12.253,39.823-13.274
			c14.297-1.021,14.297-11.232,22.464-21.443c11.231-13.273,30.634-19.4,46.97-21.443c19.4-2.042,29.612,7.148,41.864,20.422
			c21.444-14.295,45.949-27.57,72.498-17.359c35.741,14.296,7.148,40.845-12.251,54.12l0,0c18.378-3.063,55.139-1.022,61.266,21.442
			c7.148,22.463-25.529,33.697-42.888,35.737c8.171,4.085,19.399,11.233,20.424,20.421c1.02,11.236-12.253,19.402-20.424,23.488
			c-21.444,12.254-45.951,14.297-69.435,6.127c1.022,21.445-27.568,24.506-43.907,24.506c-19.402,0-36.76-9.191-40.845-29.611
			c-14.294,12.252-28.588,19.4-46.97,16.334c-15.317-2.039-27.569-10.209-20.422-26.547l0,0l0,0c-8.169,2.045-25.527,0-23.487-12.25
			C16.064,142.485,38.528,147.593,45.676,143.507"/>
		<path fill="#010101" d="M46.118,143.065c-3.207-3.45-8.664-4.025-13.031-4.878c-7.467-1.459-13.793-3.374-19.312-8.96
			c-5.459-5.525-5.105-13.186-0.037-18.727c5.142-5.622,13.482-7.096,20.704-6.19c0.488,0.061,0.756-0.57,0.54-0.94
			c-6.273-10.737-9.919-22.82-3.361-34.334c4.798-8.423,14.342-10.6,23.271-11.181c7.268-0.473,15.13,0.623,22.071-1.992
			c5.534-2.085,8.398-7.665,11.126-12.494c9.621-17.035,27.62-24.695,46.15-28.102c9.511-1.749,18.833-1.459,27.582,2.97
			c7.547,3.82,13.547,10.337,19.218,16.456c0.183,0.196,0.532,0.248,0.758,0.098c23.354-15.492,57.226-32.222,82.84-11.094
			c18.737,15.456-11.429,38.64-23.224,46.775c-0.604,0.417-0.216,1.254,0.481,1.142c18.661-2.984,49.135-2.133,59.092,17.236
			c12.481,24.278-23.286,36.524-40.88,38.716c-0.554,0.069-0.932,0.851-0.315,1.165c8.733,4.444,21.553,11.81,19.974,23.346
			c-1.247,9.113-11.696,15.17-19.046,19.012c-11.056,5.781-22.069,9.891-34.565,11.109c-11.947,1.164-23.995-0.756-35.315-4.572
			c-0.383-0.129-0.8,0.211-0.791,0.602c0.446,19.691-23.402,23.15-38.462,23.791c-20.509,0.873-40.32-7.295-45.062-29.062
			c-0.107-0.494-0.71-0.559-1.044-0.275c-12.51,10.588-26.495,18.092-43.326,16.588c-6.936-0.621-14.272-2.336-19.84-6.707
			c-6.315-4.957-5.953-12.705-3.181-19.486c0.193-0.471-0.354-0.861-0.769-0.768c-5.026,1.139-10.348,0.816-15.24-0.766
			c-4.953-1.602-12-9.969-5.007-13.768c8.283-4.501,19.377,0.586,27.877-3.724c0.719-0.365,0.086-1.443-0.631-1.079
			c-7.476,3.791-17.401,1.058-25.458,2.869c-6.145,1.382-7.126,7.685-3.741,12.505c4.048,5.764,13.575,6.338,19.85,5.652
			c0.636-0.07,1.263-0.189,1.891-0.305c-0.986,0.18-1.22,2.471-1.427,3.186c-0.585,2.023-0.708,4.146-0.608,6.234
			c0.18,3.75,2.164,7.037,4.755,9.623c6.763,6.742,18.685,8.098,27.7,8.043c11.667-0.07,22.353-5.342,31.594-12.059
			c0.795-0.578,5.671-4.193,5.708-4.025c0.492,2.26,1.247,4.539,2.211,6.641c2.155,4.693,5.075,8.686,8.927,12.119
			c7.093,6.326,16.696,9.033,25.976,9.77c13.214,1.051,30.007-0.453,40.952-8.572c4.621-3.428,7.135-8.447,7.602-14.115
			c0.202-2.461,4.159-0.139,5.948,0.352c2.784,0.762,5.621,1.305,8.464,1.787c5.641,0.959,11.38,1.195,17.089,0.996
			c10.312-0.363,20.411-3.012,29.848-7.09c8.137-3.514,16.655-8.088,22.925-14.453c4.403-4.471,7.368-11.375,4.551-17.473
			c-3.746-8.108-12.026-13.102-19.693-17.003c-0.105,0.388-0.21,0.776-0.315,1.165c18.962-2.362,51.546-13.596,42.839-38.544
			c-3.723-10.668-15.102-15.957-25.259-18.577c-11.619-2.996-24.313-3.175-36.124-1.286c0.16,0.381,0.321,0.761,0.481,1.142
			c7.686-5.301,15.013-11.216,21.133-18.299c4.761-5.51,9.123-12.525,8.339-20.092c-0.842-8.117-8.99-13.383-15.812-16.222
			c-12.443-5.179-25.604-5.241-38.468-1.64c-5.965,1.67-11.669,4.248-17.178,7.046c-2.209,1.122-17.884,11.736-19.15,10.369
			c-6.973-7.521-14.48-14.68-24.371-18.049c-10.482-3.57-22.246-1.16-32.599,1.666c-11.032,3.011-21.643,8.22-29.787,16.354
			c-6.185,6.178-8.286,16.071-15.655,21.005c-4.176,2.796-9.778,2.544-14.591,2.655c-4.706,0.109-9.398,0.153-14.077,0.733
			c-7.497,0.93-13.994,3.995-18.52,10.148c-6.355,8.641-5.191,19.656-1.386,29.028c0.88,2.167,1.992,4.232,3.121,6.277
			c0.132,0.239-4.4,0.283-5.209,0.338c-3.73,0.257-7.316,1.518-10.564,3.316c-5.325,2.948-9.073,8.426-8.823,14.592
			c0.291,7.188,7.291,12.893,13.259,15.677c6.909,3.222,18.125,1.683,23.53,7.498C45.784,144.541,46.666,143.655,46.118,143.065
			L46.118,143.065z"/>
	</g>
	<g>
		<g>
			<g>
				<path fill="#FFF8F8" d="M82.256,264.068c-1.412-0.994,1.564-5.227,3.025-6.309c5.659-3.053,18.691,5.402,15.193,11.383
					l0.331-0.475c4.755,1.232,15.118,1.486,16.897,6.953c3.472,8.064-8.161,7.619-12.117,6.244
					c6.384,12.92-19.236,10.379-18.843,0.814c-1.422,6.027-11.212,1.959-14.038-0.027c-2.35-1.65-6.775-3.355-6.203-7.168
					c0.571-3.814,4.576-4.512,7.4-2.531c-3.155-1.514-10.163-8.543-6.246-12.113c3.116-3.436,10.503,1.051,13.987,2.094"/>
				<g>
					<path fill="#252525" d="M82.795,263.752c-1.599-2.441,3.403-5.824,4.907-6c1.838-0.215,3.828,0.529,5.48,1.23
						c3.447,1.461,8.758,5.529,6.753,9.844c-0.34,0.732,0.615,1.295,1.079,0.631c0.265-0.379,4.897,0.803,5.724,0.949
						c3.147,0.559,6.437,1.285,8.983,3.33c4.162,3.342,1.234,7.645-2.986,8.205c-2.303,0.307-4.777,0.004-6.984-0.68
						c-0.573-0.178-0.915,0.453-0.706,0.918c5.045,11.193-17.491,9.881-17.678,0.5c-0.015-0.725-1.002-0.826-1.228-0.166
						c-1.661,4.861-8.183,2.129-11.198,0.709c-0.979-0.461-1.869-1.074-2.772-1.664c-0.647-0.391-1.291-0.787-1.929-1.191
						c-3.77-2.352-0.798-9.246,3.347-6.873c0.21-0.361,0.42-0.721,0.631-1.08c-2.866-1.58-9.492-7.154-6.119-11.133
						c2.844-3.355,10.264,1.193,13.379,2.256c0.765,0.26,1.09-0.947,0.332-1.205c-3.376-1.152-12.806-6.643-15.334-1.051
						c-2.196,4.857,3.215,10.064,7.112,12.213c0.706,0.389,1.331-0.68,0.631-1.08c-2.1-1.203-5.892-2.018-7.417,0.67
						c-2.036,3.584-0.268,6.227,2.808,8.363c4.171,2.898,15.106,9.096,17.735,1.398c-0.409-0.055-0.818-0.109-1.228-0.166
						c0.226,11.303,26.042,12.256,20.007-1.131c-0.235,0.307-0.47,0.613-0.706,0.918c3.381,1.047,13.871,2.049,13.543-4.002
						c-0.487-8.996-11.418-8.857-17.992-10.398c-0.292-0.068-0.539,0.047-0.706,0.287c-0.11,0.158-0.221,0.314-0.331,0.473
						c0.36,0.211,0.719,0.422,1.079,0.631c2.767-5.953-4.591-10.727-9.327-12.381c-2.418-0.846-5.458-0.996-7.456,0.781
						c-1.523,1.357-3.859,4.475-2.516,6.525C82.156,265.055,83.239,264.43,82.795,263.752L82.795,263.752z"/>
				</g>
			</g>
			<g>
				<path fill="#FFF8F8" d="M121.873,219.832c-5.327-1.604-0.527-9.285,3.207-10.654c7.919-4.258,17.124,1,18.108,8.766
					c9.29-0.525,30.146-0.895,30.062,13.189c-0.16,11.57-17.062,9.809-24.9,8.279c14.754,22.695-44.244,25.697-39.127,3.17
					c0.76,0.23,0.993-0.531,1.75-0.299c-6.316-1.072-21.161-1.385-18.183-11.281c1.527-7.836,12.184-4.633,16.217-4.252l0,0
					c-11.566-8.459,6.787-17.045,12.564-8.668"/>
				<g>
					<path fill="#252525" d="M122.188,219.293c-4.013-1.711-1.165-5.67,0.331-7.467c1.823-2.188,4.934-3.18,7.644-3.512
						c6.108-0.752,11.368,4.09,12.422,9.795c0.048,0.26,0.345,0.473,0.603,0.459c8.833-0.477,22.658-1.295,28.124,7.234
						c4.179,6.518-0.935,12.402-7.296,13.695c-5.016,1.02-10.537,0.248-15.5-0.688c-0.508-0.096-1.017,0.416-0.706,0.918
						c7.265,11.682-6.104,17.016-15.798,17.625c-5.307,0.334-10.882-0.422-15.706-2.723c-2.159-1.031-4.061-2.543-5.396-4.535
						c-1.207-1.801-2.722-6.705,0.228-7.211c0.596-0.102,0.603-1.109,0-1.205c-5.443-0.861-13.944-0.648-17.443-5.701
						c-3.605-5.207,2.775-9.523,7.278-9.568c2.7-0.027,5.364,0.652,8.034,0.965c0.525,0.062,0.853-0.738,0.442-1.066
						c-9.736-7.756,5.772-15.289,11.68-7.783c0.498,0.633,1.376-0.26,0.884-0.885c-6.921-8.795-24.516,0.734-13.448,9.553
						c0.147-0.357,0.294-0.713,0.442-1.068c-7.292-0.855-17.332-2.699-17.211,7.836c0.091,7.957,13.737,8.088,19.011,8.924
						c0-0.4,0-0.803,0-1.205c-0.583,0.1-1.167,0.199-1.75,0.301c-0.198,0.033-0.398,0.242-0.437,0.436
						c-4.989,24.971,54.757,19.979,40.27-3.318c-0.235,0.305-0.47,0.611-0.706,0.918c7.513,1.416,20.233,3.359,24.763-4.725
						c5.475-9.771-6.623-16.15-14.134-17.463c-4.888-0.854-9.931-0.789-14.869-0.551c0.065-0.004-2.908-5.584-3.407-6.162
						c-1.665-1.928-4.104-3.029-6.491-3.723c-4.707-1.365-10.046,0.711-13.083,4.357c-2.294,2.754-3.261,6.979,0.594,8.623
						C122.29,220.686,122.927,219.607,122.188,219.293L122.188,219.293z"/>
				</g>
			</g>
			<g>
				<path fill="#FFF8F8" d="M41.676,139.507c-4.084-5.105-19.402-4.085-26.549-9.19c-21.441-13.275-5.105-33.697,15.315-30.632l0,0
					l0,0c-6.126-10.212-10.211-22.465-4.083-33.697c8.169-15.316,25.528-12.253,39.823-13.274
					c14.297-1.021,14.297-11.232,22.464-21.443c11.231-13.273,30.634-19.4,46.97-21.443c19.4-2.042,29.612,7.148,41.864,20.422
					c21.444-14.295,45.949-27.57,72.498-17.359c35.741,14.296,7.148,40.845-12.251,54.12l0,0
					c18.378-3.063,55.139-1.022,61.266,21.442c7.148,22.463-25.529,33.697-42.888,35.737c8.171,4.085,19.399,11.233,20.424,20.421
					c1.02,11.236-12.253,19.402-20.424,23.488c-21.444,12.254-45.951,14.297-69.435,6.127c1.022,21.445-27.568,24.506-43.907,24.506
					c-19.402,0-36.76-9.191-40.845-29.611c-14.294,12.252-28.588,19.4-46.97,16.334c-15.317-2.039-27.569-10.209-20.422-26.547l0,0
					l0,0c-8.169,2.045-25.527,0-23.487-12.25C12.064,138.485,34.528,143.593,41.676,139.507"/>
				<g>
					<path fill="#252525" d="M42.118,139.065c-3.207-3.45-8.664-4.025-13.031-4.878c-7.467-1.459-13.793-3.374-19.312-8.96
						c-5.459-5.525-5.105-13.186-0.037-18.727c5.142-5.622,13.482-7.096,20.704-6.19c0.488,0.061,0.756-0.57,0.54-0.94
						c-6.273-10.737-9.919-22.82-3.361-34.334c4.798-8.423,14.342-10.6,23.271-11.181c7.268-0.473,15.13,0.623,22.071-1.992
						c5.534-2.085,8.398-7.665,11.126-12.494c9.621-17.035,27.62-24.695,46.15-28.102c9.511-1.749,18.833-1.459,27.582,2.97
						c7.547,3.82,13.547,10.337,19.218,16.456c0.183,0.196,0.532,0.248,0.758,0.098c23.354-15.492,57.226-32.222,82.84-11.094
						c18.737,15.456-11.429,38.64-23.224,46.775c-0.604,0.417-0.216,1.254,0.481,1.142c18.661-2.984,49.135-2.133,59.092,17.236
						c12.481,24.278-23.286,36.524-40.88,38.716c-0.554,0.069-0.932,0.851-0.315,1.165c8.733,4.444,21.553,11.81,19.974,23.345
						c-1.247,9.114-11.696,15.17-19.046,19.012c-11.056,5.781-22.069,9.891-34.565,11.109c-11.947,1.164-23.995-0.756-35.315-4.572
						c-0.383-0.129-0.8,0.211-0.791,0.602c0.446,19.691-23.402,23.15-38.461,23.791c-20.509,0.873-40.32-7.295-45.062-29.062
						c-0.107-0.494-0.71-0.559-1.044-0.275c-12.51,10.588-26.495,18.092-43.326,16.588c-6.936-0.621-14.272-2.336-19.84-6.707
						c-6.315-4.957-5.953-12.705-3.181-19.486c0.193-0.471-0.354-0.861-0.769-0.768c-5.026,1.139-10.348,0.816-15.24-0.766
						c-4.953-1.602-12-9.969-5.007-13.769c8.283-4.5,19.377,0.586,27.877-3.724c0.719-0.365,0.086-1.443-0.631-1.079
						c-7.476,3.791-17.401,1.058-25.458,2.869c-6.145,1.381-7.126,7.686-3.741,12.505c4.048,5.764,13.575,6.338,19.85,5.652
						c0.636-0.07,1.263-0.189,1.891-0.305c-0.986,0.18-1.22,2.471-1.427,3.186c-0.585,2.023-0.708,4.146-0.608,6.234
						c0.18,3.75,2.164,7.037,4.755,9.623c6.763,6.742,18.685,8.098,27.7,8.043c11.667-0.07,22.353-5.342,31.594-12.059
						c0.795-0.578,5.671-4.193,5.708-4.025c0.492,2.26,1.247,4.539,2.211,6.641c2.155,4.693,5.075,8.686,8.927,12.119
						c7.093,6.326,16.696,9.033,25.976,9.77c13.214,1.051,30.007-0.453,40.952-8.572c4.621-3.428,7.135-8.447,7.602-14.115
						c0.202-2.461,4.159-0.139,5.948,0.352c2.784,0.762,5.621,1.305,8.464,1.787c5.641,0.959,11.38,1.195,17.089,0.996
						c10.312-0.363,20.411-3.012,29.848-7.09c8.137-3.514,16.655-8.088,22.925-14.453c4.403-4.471,7.368-11.375,4.551-17.473
						c-3.746-8.108-12.026-13.102-19.693-17.003c-0.105,0.388-0.21,0.776-0.315,1.165c18.962-2.362,51.546-13.596,42.839-38.544
						c-3.723-10.668-15.102-15.957-25.259-18.577c-11.619-2.996-24.313-3.175-36.124-1.286c0.16,0.381,0.321,0.761,0.481,1.142
						c7.686-5.301,15.013-11.216,21.133-18.299c4.761-5.51,9.123-12.525,8.339-20.092c-0.842-8.117-8.99-13.383-15.812-16.222
						c-12.443-5.179-25.604-5.241-38.468-1.64c-5.965,1.67-11.669,4.248-17.178,7.046c-2.209,1.122-17.884,11.736-19.15,10.369
						c-6.973-7.521-14.48-14.68-24.371-18.049c-10.482-3.57-22.246-1.16-32.599,1.666c-11.032,3.011-21.643,8.22-29.787,16.354
						c-6.185,6.178-8.286,16.071-15.655,21.005c-4.176,2.796-9.778,2.544-14.591,2.655c-4.706,0.109-9.398,0.153-14.077,0.733
						c-7.497,0.93-13.994,3.995-18.52,10.148c-6.355,8.641-5.191,19.656-1.386,29.028c0.88,2.167,1.992,4.232,3.121,6.277
						c0.132,0.239-4.4,0.283-5.209,0.338c-3.73,0.257-7.316,1.518-10.564,3.316c-5.325,2.948-9.073,8.426-8.823,14.592
						c0.291,7.188,7.291,12.893,13.259,15.677c6.909,3.222,18.125,1.683,23.53,7.498C41.784,140.541,42.666,139.655,42.118,139.065
						L42.118,139.065z"/>
				</g>
			</g>
		</g>
	</g>
</g>
<text transform="matrix(1 0 0 1 57.3232 122.415)" font-family="'ComicSansMS-Bold'" font-size="37.3513">MMMM...</text>
</svg>
